<svg width="274" height="134" viewBox="0 0 274 134" fill="none" xmlns="http://www.w3.org/2000/svg">
<path d="M137.723 73.4702C130.305 74.8245 128.52 74.9784 124.703 74.5475C123.195 74.3628 122.672 74.3936 122.241 74.7629C121.964 75.0399 121.071 75.5324 120.302 75.871C118.916 76.4558 117.931 77.2869 117.07 78.5797C116.454 79.4723 115.715 82.4888 115.715 84.0278C115.715 84.7358 115.561 85.8131 115.377 86.3979C115.192 86.9827 114.915 88.7064 114.792 90.2454C114.638 91.7537 114.361 94.6163 114.145 96.5554C113.838 99.3872 113.868 101.511 114.176 107.021C114.607 114.531 114.607 117.24 114.145 118.779C113.992 119.333 113.868 120.81 113.868 122.072V124.319L115.192 125.489L116.485 126.659L115.808 128.013C115.223 129.09 115.13 129.614 115.315 130.968C115.469 132.445 115.592 132.661 116.608 133.153C117.962 133.861 122.61 134.2 125.103 133.8C126.304 133.615 127.166 133.246 127.843 132.63C128.397 132.168 129.289 131.583 129.843 131.337C130.828 130.937 130.982 130.968 133.106 132.076C134.922 133.061 135.599 133.246 136.984 133.215C137.908 133.215 139.539 133.184 140.647 133.184C142.864 133.153 145.357 132.445 146.434 131.522C147.265 130.783 147.265 130.691 146.465 129.829L145.818 129.152L146.526 127.767C147.142 126.628 147.204 126.32 146.865 125.797C146.68 125.458 146.496 124.781 146.496 124.258C146.496 123.765 146.372 123.334 146.188 123.334C146.034 123.334 145.88 123.057 145.88 122.719C145.88 122.288 145.603 122.072 144.803 121.918C144.218 121.826 143.725 121.611 143.725 121.488C143.725 121.149 145.049 120.841 145.264 121.149C145.357 121.303 145.88 121.334 146.434 121.272C147.665 121.087 147.727 120.318 146.649 119.179C145.972 118.409 145.818 118.379 144.803 118.717C143.294 119.21 141.879 118.871 141.879 117.979C141.879 117.609 142.032 117.147 142.217 116.963C142.864 116.316 142.186 116.009 139.939 115.824C134.707 115.393 132.029 115.239 129.474 115.208L126.796 115.178L126.981 113.639C127.227 111.361 127.227 111.361 128.551 111.545C129.566 111.669 129.967 111.515 131.413 110.437C132.337 109.76 134.245 108.437 135.661 107.482C137.631 106.159 138.185 105.636 138.185 105.051C138.185 104.558 138.554 104.097 139.355 103.573C141.909 101.88 143.171 101.142 143.91 100.834C144.556 100.588 144.649 100.465 144.341 100.095C144.156 99.8489 143.418 99.5411 142.71 99.418C141.725 99.2025 141.417 99.0179 141.417 98.5561C141.417 97.7866 142.956 97.2018 145.049 97.2018C146.126 97.171 146.496 97.0479 146.496 96.7093C146.496 96.4631 146.249 96.2476 145.911 96.2476C145.603 96.2476 144.957 95.9398 144.495 95.6012C143.664 94.9241 142.802 94.8625 128.304 94.7086C127.596 94.7086 127.473 94.5547 127.289 93.4158C127.042 91.8768 127.258 91.5998 129.012 91.3228C132.214 90.7687 133.722 90.3686 134.522 89.8453C136.831 88.3678 139.909 85.9978 140.063 85.5668C140.155 85.2898 141.047 84.6434 142.063 84.1202C145.541 82.2426 145.541 82.2426 145.295 80.1803C145.264 80.0879 144.587 79.5647 143.725 79.0414C142.586 78.3334 142.248 77.9641 142.402 77.5947C142.556 77.1638 142.956 77.1022 145.172 77.2561C147.327 77.41 147.788 77.3793 147.942 76.9791C148.127 76.4558 147.142 75.5017 145.08 74.2397C143.633 73.347 140.278 73.0084 137.723 73.4702ZM145.418 119.949C144.433 120.595 144.033 120.533 144.649 119.795C144.864 119.548 145.326 119.333 145.695 119.333C146.28 119.333 146.249 119.394 145.418 119.949Z" fill="#222222"/>
<path d="M56.0938 74.4551C55.8784 74.6706 55.5706 75.2554 55.4167 75.7171C55.232 76.1788 54.8318 76.6405 54.5548 76.7637C53.7853 77.0407 51.0459 79.5647 50.3071 80.7035C49.9378 81.196 49.4145 82.2426 49.1067 83.0121C48.7989 83.7816 48.4295 84.6742 48.2756 85.0128C48.0294 85.5668 47.0444 88.3679 46.5519 89.8453C46.4596 90.1531 46.2441 90.3994 46.0594 90.3994C45.8748 90.3994 43.9048 88.5833 41.7194 86.3979C37.5333 82.2118 32.2391 78.2411 32.0544 79.1337C31.9313 79.7494 31.131 79.9956 30.4538 79.6262C29.2226 78.9798 27.068 79.5954 27.068 80.6112C27.068 81.0729 26.9141 81.1345 26.2369 80.9806C24.4516 80.5189 21.5583 81.0729 20.7272 82.0271C20.481 82.3041 19.8038 83.1044 19.219 83.8124C18.1109 85.1359 16.2948 89.2297 16.2948 90.4609C16.2948 90.8303 16.0794 91.9384 15.8331 92.8618C15.156 95.355 14.725 103.05 14.7866 111.607C14.8482 121.426 15.2175 122.626 17.6799 120.749C19.0343 119.702 19.4344 119.764 19.9885 120.964C20.4194 121.888 20.5733 121.949 21.9276 121.949C23.0665 121.949 23.4974 121.826 23.7437 121.395C23.8976 121.087 24.2669 120.872 24.5748 120.933C24.8826 120.995 25.6213 120.656 26.2369 120.164C26.8217 119.702 27.4681 119.333 27.622 119.333C28.6993 119.333 29.8382 115.147 30.6077 108.467C30.8232 106.467 31.1002 104.743 31.1925 104.651C31.2849 104.558 31.5619 104.651 31.8389 104.866C32.1159 105.082 32.393 105.174 32.4853 105.082C32.8547 104.743 32.3314 103.943 31.5311 103.635C30.9463 103.419 30.7616 103.112 30.7616 102.434C30.7616 101.296 31.1617 101.019 31.8081 101.665C32.3622 102.219 32.4545 102.004 31.9928 101.142C31.8081 100.834 31.4388 100.557 31.1925 100.557C30.8539 100.557 30.7616 100.28 30.8232 99.3872C30.8847 98.4946 31.0386 98.2484 31.5311 98.2484C31.962 98.2484 32.4237 98.8024 33.1625 100.218C33.7165 101.296 34.7631 102.865 35.471 103.727C36.1789 104.589 37.2563 106.097 37.8411 107.113C38.9184 108.929 39.7495 109.576 42.1503 110.468C42.7352 110.684 43.5355 111.176 43.9048 111.576C44.3973 112.1 44.7667 112.253 45.136 112.1C45.4438 111.946 45.9055 111.884 46.2133 111.915C46.4904 111.946 47.1983 111.761 47.8139 111.515C48.8912 111.084 48.922 110.991 48.922 109.483C48.922 108.621 49.199 107.144 49.5068 106.159C49.8454 105.205 50.1532 104.066 50.2148 103.635C50.2764 103.173 50.6457 102.712 51.2305 102.404C51.7538 102.157 52.1847 101.942 52.2155 101.942C52.2155 101.942 52.3386 101.388 52.4618 100.742C52.6464 99.7566 52.6157 99.6027 52.2771 99.7874C51.9077 100.003 51.9385 99.9721 52.2771 99.5103C53.0774 98.5254 53.2313 99.1102 54.6164 108.252C54.8626 109.853 55.232 111.946 55.4167 112.869C55.6014 113.792 55.8784 115.178 56.0015 115.947C56.5248 118.871 56.9249 121.087 57.2327 122.565C57.4174 123.396 57.6944 125.889 57.8483 128.105C58.1561 131.707 58.2485 132.168 58.9256 132.876L59.6951 133.615L60.5878 132.938C61.111 132.568 61.8498 132.261 62.2499 132.261C62.6808 132.261 63.5119 132.045 64.1275 131.799C65.0817 131.399 65.2356 131.183 65.2356 130.291C65.2356 129.706 65.4203 129.183 65.6358 129.121C65.8204 129.029 67.0824 128.998 68.3752 129.029C70.3451 129.059 70.8684 128.967 71.2993 128.505C72.3459 127.367 74.4697 119.456 74.6236 116.101C74.716 114.223 74.1927 109.853 73.6694 107.944C73.3924 107.021 72.7152 104.712 72.1304 102.865C71.5764 100.988 70.9608 98.8947 70.8069 98.156C70.653 97.4481 70.3144 96.5246 70.0373 96.0937C69.7603 95.6936 69.6372 95.1703 69.7295 94.9241C69.8219 94.6778 69.668 94.2777 69.4217 94.0007C69.1139 93.6929 68.9293 92.9541 68.9293 91.9692C68.9293 91.1381 68.7754 90.3378 68.5907 90.2147C68.406 90.1223 68.3444 89.753 68.406 89.4144C68.4983 89.0758 68.4675 88.5525 68.3136 88.2755C68.1905 87.9985 67.8519 86.952 67.5441 85.9362C66.4976 82.2118 64.2814 77.3793 62.804 75.6248C62.0652 74.7322 61.6651 74.5475 60.557 74.4859C59.8183 74.4243 58.5871 74.3012 57.8175 74.2089C56.8326 74.0858 56.3401 74.1473 56.0938 74.4551ZM53.2313 95.9398C53.2313 96.2784 53.1081 96.5554 52.9235 96.5554C52.7696 96.5554 52.6157 96.2784 52.6157 95.9398C52.6157 95.6012 52.7696 95.3242 52.9235 95.3242C53.1081 95.3242 53.2313 95.6012 53.2313 95.9398ZM69.391 128.259C69.4833 128.413 69.4217 128.567 69.2678 128.567C69.0832 128.567 68.9293 128.413 68.9293 128.259C68.9293 128.075 68.9908 127.951 69.0524 127.951C69.1447 127.951 69.2986 128.075 69.391 128.259ZM64.0967 129.952C63.8505 130.629 63.4196 130.506 63.6043 129.798C63.6966 129.46 63.8813 129.275 64.0352 129.337C64.1583 129.429 64.2199 129.706 64.0967 129.952Z" fill="#222222"/>
<path d="M170.197 77.5024C169.088 77.6563 166.872 77.7486 165.272 77.7179C159.239 77.6255 156.622 77.8102 156.438 78.3642C156.099 79.2876 155.022 80.2418 154.283 80.2418C153.883 80.2418 153.575 80.0879 153.575 79.934C153.575 79.7494 153.298 79.6262 152.96 79.6262C152.559 79.6262 152.344 79.8417 152.344 80.2418C152.344 80.6112 151.975 81.0421 151.421 81.3192C150.343 81.8732 150.282 82.458 151.144 84.0894C151.482 84.7666 151.944 85.8131 152.159 86.3979C152.344 86.9827 153.113 88.491 153.852 89.7222C154.93 91.569 155.268 91.9384 155.761 91.7845C156.222 91.6306 156.438 91.8153 156.807 92.6463C157.392 94.0314 157.946 94.2161 160.285 93.7544C161.886 93.4158 162.655 93.4466 164.841 93.816L167.457 94.2469L167.611 103.142C167.703 108.037 167.826 112.13 167.888 112.253C167.95 112.377 167.888 113.608 167.734 115.054C167.519 117.178 167.58 118.194 168.073 120.718C169.15 126.135 169.704 126.813 171.674 125.243C173.644 123.704 173.921 123.55 174.937 123.581C175.675 123.611 176.137 123.396 176.599 122.873C176.968 122.442 177.43 122.103 177.645 122.103C177.83 122.103 178.261 121.888 178.569 121.58C179.369 120.872 179.554 121.241 179.184 122.719C178.938 123.734 178.969 124.012 179.277 124.165C179.862 124.381 180.354 124.012 180.354 123.427C180.354 123.15 180.631 122.503 180.97 121.949C181.308 121.426 181.77 120.164 181.985 119.148C182.232 118.163 183.032 116.163 183.771 114.716L185.094 112.1L185.156 106.559C185.248 100.588 184.848 97.7559 183.648 95.5705C183.309 94.9241 183.063 94.3392 183.155 94.2777C183.34 94.0622 188.511 92.3077 190.512 91.7537C192.512 91.1996 192.574 91.1381 192.728 89.9377C192.82 89.1066 192.943 89.0142 193.867 89.0142C195.252 89.0142 195.498 88.3063 194.174 88.1832C192.789 88.0601 192.728 87.4444 194.021 86.6749C195.406 85.8746 195.467 85.3514 194.144 85.5976C192.635 85.8746 192.174 85.3822 193.374 84.7973C193.928 84.5203 194.636 84.2125 194.944 84.1202C195.252 83.997 195.436 83.8431 195.344 83.72C195.221 83.6277 195.283 83.2891 195.467 82.9813C195.714 82.458 195.652 82.3965 194.852 82.3965C192.82 82.3965 192.42 81.7193 194.051 81.0421C195.406 80.4573 196.083 79.1953 195.375 78.5181C194.667 77.8102 192.451 77.6871 190.512 78.2411C189.588 78.4874 187.803 78.9183 186.572 79.1645C184.448 79.5955 184.232 79.5955 182.97 79.0106C182.232 78.672 181.124 78.395 180.508 78.395C179.892 78.395 179.031 78.2103 178.569 77.9641C177.492 77.41 172.813 77.1638 170.197 77.5024ZM178.815 119.949C178.815 120.964 178.353 121.211 178.138 120.318C177.953 119.671 178.169 119.025 178.538 119.025C178.692 119.025 178.815 119.425 178.815 119.949Z" fill="#222222"/>
<path d="M217.598 78.672C216.152 78.9798 213.504 79.7186 211.688 80.3342C209.872 80.9498 207.964 81.4731 207.471 81.4731C206.979 81.4731 206.517 81.6577 206.394 81.9348C206.302 82.2118 205.84 82.3965 205.163 82.3965C204.578 82.3965 203.993 82.5196 203.901 82.7043C203.809 82.8582 203.408 83.0121 203.039 83.0121C201.808 83.0121 200.053 83.6585 200.053 84.0894C200.053 84.3356 199.807 84.705 199.53 84.9205C198.853 85.4129 198.638 88.5525 199.222 88.9219C199.499 89.0758 199.469 89.3528 199.068 89.9992C198.791 90.4609 198.576 91.3536 198.576 91.9384C198.576 92.5232 198.36 93.8468 198.145 94.8625C197.837 96.0937 197.683 99.0794 197.622 103.635C197.591 107.452 197.437 111.884 197.283 113.485C196.914 118.194 197.468 121.211 199.007 122.873C199.592 123.457 200.053 124.073 200.053 124.196C200.053 124.35 200.607 124.627 201.285 124.843L202.516 125.212L202.331 126.874C202.208 127.767 202.208 128.875 202.331 129.275C202.608 130.383 204.886 131.645 206.579 131.645C207.718 131.645 208.087 131.491 208.98 130.568C210.057 129.46 211.473 128.875 213.135 128.875C213.658 128.875 214.52 128.598 215.074 128.259C215.813 127.798 216.613 127.644 218.091 127.644C221.23 127.644 225.94 127.059 227.232 126.505C228.094 126.135 228.371 125.828 228.371 125.274C228.371 124.781 228.156 124.442 227.756 124.35C226.494 124.012 227.017 123.611 231.08 121.641C232.896 120.749 233.912 120.072 233.912 119.764C233.912 119.333 233.666 119.302 232.157 119.487C231.203 119.61 230.249 119.764 230.003 119.856C229.756 119.949 229.603 119.795 229.603 119.425C229.603 119.117 229.449 118.687 229.233 118.471C228.956 118.194 228.987 118.009 229.479 117.64C229.787 117.394 230.311 117.178 230.588 117.178C231.357 117.178 232.065 116.84 232.065 116.501C232.065 116.316 232.311 116.009 232.588 115.793C233.05 115.455 233.05 115.331 232.681 114.87C232.342 114.47 231.973 114.408 231.018 114.562C230.311 114.685 228.341 114.839 226.586 114.901C223.785 115.054 223.262 114.993 222.184 114.439C220.461 113.546 216.305 113.515 214.982 114.408C213.966 115.085 212.519 115.208 212.181 114.685C212.089 114.5 212.273 113.977 212.612 113.485C212.981 113.023 213.381 112.192 213.504 111.638C213.72 110.868 214.028 110.561 214.92 110.253C216.429 109.729 217.444 108.837 216.921 108.529C216.736 108.406 216.305 108.437 216.028 108.591C215.567 108.837 215.136 108.837 213.935 108.591C213.874 108.56 213.997 108.344 214.212 108.098C214.428 107.821 214.828 107.698 215.074 107.79C215.29 107.883 215.936 107.729 216.459 107.482C217.013 107.236 218.06 107.052 218.829 107.082C220.676 107.113 222.831 106.713 223.6 106.19C224.124 105.851 223.97 105.82 222.277 105.974C220.922 106.128 220.368 106.067 220.368 105.82C220.368 105.636 220.645 105.482 220.984 105.482C221.846 105.482 224.062 104.774 224.062 104.497C224.062 104.343 223.877 104.251 223.662 104.251C223.446 104.251 223.108 103.974 222.892 103.635C222.585 103.112 222.585 103.019 223.046 103.019C223.662 102.989 226.74 101.973 227.017 101.696C227.109 101.603 226.586 101.45 225.847 101.326C224.524 101.111 223.231 100.588 224.001 100.557C224.647 100.557 224.401 99.9721 223.693 99.8182C223.293 99.7258 222.031 99.4488 220.83 99.141C219.661 98.864 217.444 98.5562 215.905 98.433L213.135 98.2484L212.981 96.2784C212.889 95.1088 212.95 94.2777 213.135 94.2469C213.289 94.1853 215.074 93.6621 217.075 93.0157C220.245 91.9999 220.676 91.8153 220.522 91.292C220.276 90.4917 221.138 90.1839 221.754 90.8303C222.092 91.1381 222.8 91.3228 223.754 91.3228C224.986 91.3228 225.263 91.2304 225.386 90.6764C225.663 89.6914 224.801 88.6449 223.57 88.3986C222.061 88.1216 222.4 87.5368 224.247 87.1982C225.632 86.952 226.186 86.6134 226.217 85.9978C226.217 85.8746 225.97 85.7823 225.693 85.7823C225.232 85.7823 225.201 85.7207 225.601 85.4745C225.847 85.3206 226.525 85.1667 227.079 85.1667C228.064 85.1667 228.371 84.6742 227.756 84.0586C227.54 83.8431 227.602 83.7508 227.971 83.7508C228.279 83.7816 228.587 83.6585 228.679 83.4738C228.771 83.3199 228.618 83.166 228.371 83.1352C226.494 83.0429 225.293 82.181 226.217 81.627C226.74 81.2884 226.555 80.8574 225.878 80.8574C225.355 80.8574 225.293 80.7651 225.57 80.4265C225.817 80.1495 226.34 80.0572 227.356 80.1803C228.464 80.3034 228.741 80.2418 228.618 79.9033C228.556 79.657 228.094 79.2877 227.663 79.0722C227.202 78.8567 226.832 78.5489 226.832 78.3642C226.832 77.9025 220.399 78.118 217.598 78.672ZM223.754 79.2877C223.754 79.4723 223.631 79.6878 223.446 79.7801C223.293 79.8725 223.139 79.7494 223.139 79.5031C223.139 79.2261 223.293 79.0106 223.446 79.0106C223.631 79.0106 223.754 79.1337 223.754 79.2877Z" fill="#222222"/>
<path d="M88.9364 79.2261C87.8283 79.4108 84.5348 80.5497 84.1347 80.8882C83.95 81.0421 83.5807 81.1037 83.3344 81.0114C83.0574 80.8882 82.6572 81.1345 82.3494 81.5962C82.0724 82.0271 81.4568 82.5812 80.9643 82.8274C80.4718 83.1044 80.0101 83.5661 79.9178 83.9355C79.7639 84.4895 79.5792 84.5511 78.5635 84.3664C77.4246 84.1817 77.363 84.2433 76.6859 85.4437C75.3931 87.7523 75.0237 96.5554 75.8856 105.297C76.101 107.513 76.3473 111.238 76.4704 113.546C76.5935 115.886 76.7782 117.794 76.9013 117.794C76.9937 117.794 77.1168 119.056 77.1168 120.626C77.1476 122.78 77.3015 123.519 77.64 123.796C78.071 124.104 78.071 124.165 77.6093 124.473C76.8398 124.935 77.5169 126.135 79.1791 127.243C80.4103 128.105 80.595 128.136 81.3337 127.736C82.1032 127.336 82.1648 127.367 82.5957 128.228C82.9035 128.752 83.396 129.152 83.9192 129.275C84.7195 129.429 85.4583 130.014 86.8742 131.645C87.4898 132.353 89.6136 132.507 90.9064 131.922C91.4912 131.645 92.4454 131.645 94.6 131.891C97.5857 132.23 97.8935 132.199 100.787 131.122C102.141 130.599 102.326 130.445 102.234 129.737C102.172 129.152 102.326 128.813 102.849 128.536C103.526 128.167 103.526 128.167 102.942 127.921C102.387 127.705 102.418 127.674 103.126 127.674C104.08 127.644 104.788 126.936 104.511 126.258C104.388 125.889 104.511 125.797 105.035 125.858C105.681 125.951 105.712 125.858 105.619 124.258C105.558 123.334 105.496 121.857 105.496 120.964C105.435 119.241 105.527 119.302 102.788 118.41C102.203 118.225 99.5249 117.979 96.847 117.886C92.5377 117.732 91.9221 117.64 91.6143 117.117C91.3989 116.778 90.9064 116.563 90.3831 116.563C89.6752 116.563 89.5213 116.44 89.6752 116.07C89.7675 115.793 89.8598 115.27 89.8598 114.87C89.8598 114.193 89.983 114.162 92.0145 114.131C94.2922 114.1 96.4161 113.423 97.2164 112.469C97.4318 112.161 97.8012 111.946 98.0166 111.946C98.2321 111.946 98.7246 111.699 99.1247 111.361L99.8327 110.807L99.1555 110.591C98.7862 110.468 98.2013 110.53 97.8627 110.714C97.124 111.115 94.1691 110.838 94.1691 110.376C94.1691 109.729 95.4619 108.868 96.4468 108.868C97.1548 108.868 97.6473 108.652 97.9243 108.283C98.1398 107.975 98.9093 107.513 99.648 107.329C100.479 107.052 100.941 106.744 100.941 106.405C100.941 106.005 100.725 105.913 99.9558 106.036L98.9401 106.159L99.8019 105.266C100.756 104.22 100.848 103.758 100.14 102.989C99.648 102.465 99.6788 102.404 100.479 102.096C100.941 101.911 101.279 101.727 101.218 101.665C101.156 101.603 99.3094 101.357 97.0932 101.172C94.9078 100.957 92.7532 100.742 92.3223 100.68C91.8914 100.649 91.4604 100.588 91.3373 100.588C90.8448 100.526 91.1218 99.5411 91.9529 98.4946C92.4146 97.879 92.7532 97.325 92.7224 97.2634C92.2299 96.6478 94.877 95.0164 96.3545 95.0164C96.9086 95.0164 98.2013 94.8625 99.2171 94.6778C100.264 94.4932 101.372 94.2777 101.741 94.2161C102.08 94.1546 102.849 93.7852 103.434 93.3851C104.327 92.7695 104.481 92.5232 104.388 91.5998C104.327 91.015 104.08 90.3378 103.865 90.0916C103.496 89.6914 103.434 88.8296 103.68 87.5984C103.68 87.506 104.05 87.0443 104.481 86.5826C105.342 85.6592 105.465 84.5203 104.788 83.9355C104.542 83.72 104.327 83.3814 104.327 83.1352C104.327 82.9197 104.05 82.5812 103.711 82.3965C102.942 81.9656 102.942 81.627 103.742 80.8267C104.881 79.6878 104.327 79.4416 100.571 79.2261C96.8778 79.0106 90.2292 79.0106 88.9364 79.2261ZM83.6114 82.2734C83.3344 82.5504 82.7496 82.0887 82.965 81.7193C83.0882 81.5346 83.2729 81.5346 83.4883 81.7501C83.673 81.9348 83.7346 82.1502 83.6114 82.2734ZM83.0882 117.455C83.0882 117.609 82.8727 117.825 82.5957 117.917C81.9185 118.194 81.857 118.163 81.857 117.64C81.857 117.394 82.134 117.178 82.4726 117.178C82.8111 117.178 83.0882 117.301 83.0882 117.455ZM82.4726 124.258C82.4726 124.596 82.2571 124.873 82.0109 124.873C81.7646 124.873 81.5492 124.596 81.5492 124.258C81.5492 123.919 81.7646 123.642 82.0109 123.642C82.2571 123.642 82.4726 123.919 82.4726 124.258ZM84.1655 126.382C84.1655 126.628 84.0424 126.874 83.8577 126.936C83.3652 127.09 82.688 126.505 82.9343 126.135C83.2113 125.643 84.1655 125.858 84.1655 126.382Z" fill="#222222"/>
<path d="M249.087 81.7193C247.948 81.8424 247.24 82.5196 247.671 83.0736C247.825 83.2891 247.948 83.8124 247.948 84.2433C247.917 84.8897 247.794 85.0128 246.994 84.9512C246.501 84.9205 245.916 84.6742 245.762 84.428C245.178 83.6585 243.084 82.6427 242.377 82.8274C241.822 82.9813 241.638 83.3199 241.453 84.428C241.361 85.1975 241.207 86.0593 241.176 86.3364C240.283 91.3843 240.037 93.7236 240.407 93.9699C240.561 94.0314 240.653 94.8317 240.622 95.7244C240.591 96.617 240.776 98.433 241.084 99.7874C241.361 101.142 241.638 102.804 241.699 103.481C241.761 104.158 241.915 104.928 242.007 105.174C242.223 105.759 242.592 108.406 242.654 109.606C242.654 110.099 242.869 110.56 243.054 110.622C243.362 110.745 243.331 111.022 242.992 111.853C242.746 112.469 242.438 113.916 242.315 115.085L242.13 117.24L243.792 117.147C245.208 117.024 245.455 117.117 245.547 117.609C245.608 117.917 245.485 118.317 245.239 118.44C244.931 118.656 244.931 118.779 245.208 118.964C245.424 119.087 245.608 119.825 245.67 120.564C245.762 121.795 245.701 121.949 244.901 122.226C243.977 122.565 243.023 122.226 242.961 121.518C242.869 120.872 242.838 120.841 242.192 121.211C241.669 121.488 241.576 121.734 241.73 122.503C241.822 123.027 241.976 123.488 242.038 123.55C242.1 123.611 242.869 123.457 243.731 123.15C246.286 122.319 246.255 122.934 243.7 124.381C242.53 125.027 242.992 125.397 244.346 124.935C245.116 124.658 245.331 124.719 245.824 125.243C246.224 125.704 246.624 125.828 247.394 125.674C247.948 125.581 248.748 125.674 249.179 125.858C249.795 126.135 249.918 126.412 249.918 127.551C249.918 128.813 249.949 128.875 250.841 128.875C251.364 128.875 251.765 128.721 251.765 128.567C251.765 128.382 251.949 128.259 252.165 128.321C252.78 128.444 255.427 126.72 255.274 126.289C255.181 126.074 255.612 125.551 256.197 125.15C257.305 124.412 257.921 123.427 257.921 122.411C257.921 122.103 258.044 121.765 258.167 121.672C258.321 121.58 258.629 120.749 258.844 119.825C259.275 117.948 259.06 113.977 258.505 113.269C258.321 113.054 258.228 112.592 258.321 112.223C258.505 111.484 257.767 109.329 257.028 108.437C256.659 108.006 256.628 107.821 256.936 107.729C257.736 107.421 256.997 104.374 256.012 104.066C255.704 103.974 255.458 103.789 255.458 103.635C255.458 103.481 255.674 103.419 255.92 103.512C256.536 103.758 257.12 102.281 256.689 101.511C256.536 101.203 256.258 100.003 256.074 98.8332C255.828 97.2018 255.581 96.5554 254.996 96.0937C254.35 95.5705 254.227 95.078 253.95 92.4616C253.796 90.7687 253.396 88.9219 253.057 88.1524C252.719 87.4444 252.288 86.4903 252.103 85.9978C251.918 85.5361 251.58 85.1667 251.334 85.1667C250.749 85.1667 250.441 84.2741 250.872 83.7508C251.272 83.2583 250.995 81.904 250.472 81.7193C250.256 81.6577 249.641 81.6577 249.087 81.7193Z" fill="#222222"/>
<path d="M231.307 0.515384C230.938 1.71582 230.63 1.99284 229.799 1.9005C229.029 1.80816 228.968 1.86972 229.153 2.57767C229.368 3.4703 228.475 4.14747 227.49 3.83966C225.582 3.22406 223.643 7.28706 225.49 7.99501C226.382 8.3336 226.475 9.07232 225.767 9.87261C225.428 10.242 225.367 10.5806 225.582 10.9191C225.736 11.227 225.767 11.9965 225.613 12.7352C225.028 15.6901 225.49 25.3244 226.259 26.3093C226.413 26.4632 226.598 27.1712 226.721 27.8483C227.06 29.6952 227.614 30.4031 228.568 30.2184C229.122 30.1261 229.491 30.2492 229.799 30.6494C230.415 31.4804 230.384 31.819 229.46 32.8963C228.629 33.9121 228.66 34.7739 229.522 34.7739C229.891 34.7739 229.984 34.9278 229.799 35.4511C229.491 36.4668 229.337 38.5291 229.522 39.1755C229.645 39.5757 229.861 39.668 230.322 39.5141C230.907 39.3294 230.938 39.4218 230.753 40.4991C230.63 41.1762 230.291 41.915 230.014 42.1612C229.707 42.4075 229.522 42.8692 229.583 43.2077C229.645 43.5156 229.553 43.9157 229.368 44.1004C228.876 44.5929 228.937 44.8699 229.676 45.0854C230.168 45.2393 230.291 45.4855 230.168 46.0395C230.107 46.4397 230.168 46.809 230.322 46.8398C230.476 46.9014 230.476 47.517 230.291 48.3173C230.107 49.1791 230.076 49.7332 230.261 49.7947C230.445 49.8563 230.568 50.6566 230.568 51.58C230.568 53.1498 230.599 53.2421 231.338 53.2421C231.769 53.2421 232.107 53.3653 232.107 53.5499C232.107 53.7039 231.923 53.8578 231.677 53.8578C230.999 53.8578 230.753 54.4426 230.661 56.1663C230.476 60.1677 230.568 61.2758 231.153 61.9838C231.677 62.5994 232.2 62.5994 233.431 61.953C234.201 61.5528 234.293 61.3989 233.893 61.3066C233.246 61.1835 233.216 60.968 233.739 60.2908C234.385 59.429 235.401 59.2751 235.801 60.0138C236.078 60.5371 236.232 60.5987 236.601 60.2908C236.848 60.1062 237.032 59.7368 237.032 59.5213C237.032 59.2751 237.155 59.0904 237.309 59.0904C237.463 59.0904 238.079 58.6287 238.725 58.0439C239.895 56.9666 240.726 56.8742 240.726 57.8592C240.726 58.5979 241.496 59.1828 242.234 58.9365C242.665 58.8134 242.881 58.9365 243.035 59.3982C243.312 60.3216 245.035 62.1069 245.066 61.5528C245.097 61.3066 245.158 60.5371 245.22 59.8599C245.281 59.1828 245.374 58.0747 245.466 57.3975C245.712 54.9043 245.959 50.8105 246.082 46.3473C246.174 43.731 246.359 41.6379 246.543 41.4533C246.974 41.0223 247.775 42.0381 247.805 42.9923C247.805 43.3924 247.929 43.7002 248.052 43.7002C248.483 43.7002 249.037 42.9923 249.037 42.4075C249.037 42.0073 249.283 41.8534 249.806 41.8534C250.545 41.8534 250.576 41.7611 250.422 40.8377L250.206 39.7911L252.33 40.0989C253.469 40.2528 254.608 40.5606 254.823 40.7761C255.131 41.0531 255.224 42.0381 255.224 44.2851C255.193 46.8091 255.285 47.4554 255.654 47.5786C255.901 47.7017 256.116 47.9787 256.116 48.1942C256.116 48.4404 256.455 48.779 256.886 48.9329C257.563 49.1791 257.655 49.4254 257.655 50.6566C257.655 52.0109 258.671 54.4734 259.225 54.4734C259.348 54.4734 259.564 54.104 259.717 53.6423C259.933 52.9959 260.21 52.842 261.072 52.8112C262.272 52.7497 262.611 52.9959 263.165 54.381C263.596 55.4276 264.304 55.4583 264.027 54.4426C263.934 54.1348 264.027 53.7346 264.242 53.5807C264.735 53.1498 266.274 52.8112 266.304 53.119C266.551 56.2586 266.766 57.0281 267.474 57.4591C268.305 57.9823 269.567 57.4898 270.029 56.4741C270.398 55.643 271.506 55.3968 271.506 56.1663C271.506 56.4125 271.66 56.628 271.814 56.628C272.091 56.628 272.276 55.5507 272.06 55.3044C271.999 55.2736 272.368 54.5657 272.861 53.7346C273.63 52.4419 273.784 51.7955 273.907 49.333C274 47.5478 273.938 46.3473 273.723 46.0703C273.538 45.8549 273.322 44.3774 273.261 42.7768C273.199 41.1762 272.922 38.406 272.707 36.6515C272.368 34.0352 272.153 33.2657 271.568 32.6501C270.891 31.9421 270.86 31.6651 271.045 30.1569C271.322 27.756 271.291 27.2943 270.737 26.9865C270.398 26.8018 270.337 26.5864 270.521 26.3709C270.706 26.1554 270.706 25.2628 270.583 24.2163C270.429 23.2313 270.367 21.7538 270.46 20.9228C270.521 20.0609 270.46 19.353 270.275 19.2298C270.09 19.1067 270.029 18.7374 270.152 18.3988C270.244 18.0294 270.183 17.66 269.967 17.5369C269.567 17.2907 268.952 14.6128 268.952 13.0738C268.952 12.5813 268.798 12.0272 268.582 11.8426C268.336 11.6579 268.121 10.6113 268.059 9.07232C267.997 7.31784 267.751 6.20975 267.259 5.194C266.889 4.42449 266.581 3.50108 266.581 3.13171C266.581 2.76235 266.212 2.23908 265.781 1.93128C265.32 1.62348 264.642 1.06943 264.242 0.730847L263.534 0.0536786L262.58 0.915529C261.441 1.93128 258.64 2.42377 258.086 1.71582C257.624 1.06943 257.132 1.53114 257.163 2.57767C257.193 3.07015 257.009 3.53186 256.824 3.59342C256.609 3.68576 256.424 3.53186 256.424 3.25484C256.424 2.97781 256.27 2.76235 256.085 2.76235C255.839 2.76235 255.808 3.10093 255.931 3.71654C256.024 4.27059 255.993 4.85542 255.839 5.0401C255.716 5.22478 255.501 6.39443 255.408 7.65643C255.285 9.25701 255.07 10.0265 254.7 10.3035C254.269 10.5806 254.208 10.9191 254.392 11.8733C254.516 12.5197 254.669 13.8433 254.731 14.7667C254.823 16.1518 254.762 16.552 254.208 17.1368C253.561 17.8139 253.561 17.8755 254.115 18.4603C254.392 18.7681 254.577 19.2606 254.485 19.5069C254.392 19.7531 254.516 20.1225 254.762 20.3072C255.377 20.8304 255.316 21.5384 254.639 21.5384C254.3 21.5384 253.9 21.877 253.715 22.3079C253.377 23.0158 253.438 23.139 254.115 23.3852C254.793 23.6314 254.885 23.8777 254.885 25.1705C254.885 26.2785 254.731 26.8326 254.269 27.2327C253.931 27.5405 253.654 28.033 253.654 28.3716C253.654 28.6794 253.531 28.9257 253.377 28.9257C253.223 28.9257 252.823 29.018 252.515 29.1103C252.053 29.295 252.022 29.2335 252.361 28.8949C253.13 28.0638 252.669 27.9715 249.191 28.1869C245.128 28.4332 244.42 28.1869 243.804 26.2785C243.404 25.0781 243.65 24.6164 244.82 24.6164C245.097 24.6164 245.343 24.4933 245.343 24.3394C245.343 24.1855 244.974 24.0624 244.543 24.0624C243.404 24.0931 243.035 23.5699 241.988 20.4611C240.172 15.0745 239.495 13.1969 239.156 12.5197C238.941 12.1504 238.756 11.073 238.725 10.1496C238.694 9.07232 238.417 7.99501 238.017 7.2255C237.648 6.54833 237.34 5.80961 237.34 5.59414C237.34 5.16322 235.555 4.30137 234.631 4.30137C234.293 4.30137 233.831 4.08591 233.616 3.80888C233.277 3.40874 233.308 3.28562 233.739 3.00859C234.416 2.63923 234.077 2.0544 233.308 2.30065C232.692 2.51611 232.631 2.39299 232.292 0.823188C232.077 -0.131004 231.553 -0.284905 231.307 0.515384ZM257.901 39.8219C257.994 40.4375 257.901 40.653 257.594 40.5606C257.378 40.4683 257.163 40.0374 257.101 39.5757C257.009 38.9601 257.101 38.7446 257.409 38.8369C257.624 38.9293 257.84 39.3602 257.901 39.8219ZM242.327 45.701C242.327 45.8549 242.173 46.0395 241.988 46.1011C241.803 46.1627 241.649 45.978 241.649 45.701C241.649 45.4239 241.803 45.2393 241.988 45.3008C242.173 45.3624 242.327 45.5471 242.327 45.701ZM242.727 53.6423C242.696 54.5657 242.573 55.4583 242.45 55.6738C242.05 56.2894 242.511 56.9973 243.219 56.8742C244.019 56.7511 244.604 57.5514 244.297 58.3517C244.143 58.7826 244.019 58.8134 243.835 58.5056C243.681 58.2901 243.404 58.167 243.158 58.1978C242.911 58.2593 242.419 58.1054 242.019 57.89C241.372 57.5514 241.311 57.3667 241.526 55.8277C241.68 54.4118 241.649 54.1656 241.218 54.1656C240.541 54.1656 240.541 52.2264 241.218 51.5492C241.68 51.1183 241.773 51.1183 242.234 51.5184C242.634 51.8878 242.757 52.4419 242.727 53.6423ZM238.264 57.5514C238.264 57.7053 238.14 57.8592 237.956 57.8592C237.802 57.8592 237.648 57.7053 237.648 57.5514C237.648 57.3667 237.802 57.2436 237.956 57.2436C238.14 57.2436 238.264 57.3667 238.264 57.5514Z" fill="#222222"/>
<path d="M201.789 5.53259C199.511 5.90196 195.417 8.51829 192.278 11.5963C191.539 12.3351 190.739 12.9199 190.493 12.9199C190.246 12.9199 189.661 13.32 189.169 13.8433C188.676 14.3358 188.092 14.7667 187.876 14.7667C187.661 14.7667 187.291 15.1361 187.107 15.5978C186.891 16.0903 186.276 17.0137 185.752 17.6908C183.259 20.8612 181.505 23.6314 180.643 25.7861C179.843 27.8176 179.719 28.4024 179.843 30.3108C179.996 32.6501 180.058 32.7424 183.167 37.0209C184.09 38.3137 185.075 39.4526 185.352 39.5449C185.629 39.6372 186.214 40.0374 186.645 40.4375C187.876 41.5764 192.493 43.7002 195.91 44.6852C197.603 45.1469 199.049 45.6394 199.142 45.7318C199.45 46.0396 198.649 46.963 196.802 48.3173C194.956 49.7024 193.909 50.318 189.138 52.9344C186.399 54.4426 183.228 57.0897 182.213 58.7211C181.843 59.2751 181.351 59.9215 181.105 60.1985C180.735 60.5679 180.704 60.7218 181.043 61.1219C181.351 61.4913 181.782 61.5529 183.074 61.399C184.152 61.2758 184.706 61.3066 184.706 61.5221C184.706 61.7068 184.49 61.8607 184.213 61.8607C183.475 61.8607 183.875 62.5686 184.798 62.8764C185.352 63.0611 185.906 62.9995 186.614 62.661C187.168 62.4147 188.399 62.1069 189.323 62.0146C190.246 61.8914 191.231 61.6144 191.508 61.3682C192.062 60.8757 195.787 60.414 195.787 60.8449C195.787 60.9988 195.602 61.3066 195.417 61.5221C194.494 62.4763 199.511 60.9065 203.082 59.1212C204.467 58.444 205.667 57.7361 205.79 57.5514C205.883 57.3667 207.083 56.5972 208.407 55.8585C209.73 55.089 210.9 54.2579 210.992 54.0117C211.085 53.7654 211.731 53.2114 212.47 52.7497C214.347 51.6108 215.64 50.3488 217.548 47.7633C218.441 46.5628 219.334 45.5471 219.488 45.5471C219.857 45.5471 221.458 43.1154 221.888 41.8534C222.443 40.3144 222.35 37.6981 221.673 36.3745C220.965 34.9278 219.211 32.096 218.41 31.0187C217.518 29.8799 214.532 28.0946 211.977 27.1712C210.284 26.5556 206.344 25.7553 204.036 25.5706C203.543 25.509 203.82 24.3086 204.405 24.0008C204.713 23.8469 206.067 23.6007 207.391 23.5083C210.007 23.2929 211.608 22.5849 212.008 21.446C212.439 20.1225 212.162 16.3365 211.485 14.9514C211.146 14.2434 210.869 13.2892 210.869 12.8275C210.869 12.3658 210.592 11.7502 210.254 11.4424C209.884 11.1654 209.392 10.1804 209.145 9.2878C208.745 7.93346 208.561 7.68722 207.945 7.68722C207.545 7.68722 206.745 7.22551 206.16 6.64068C204.99 5.50181 203.728 5.19401 201.789 5.53259Z" fill="#222222"/>
<path d="M52.535 6.30206C52.4427 6.5483 52.4427 7.16391 52.535 7.62561C52.6581 8.36434 52.535 8.51824 51.4577 9.04151C50.5958 9.44165 49.8879 9.56477 49.0876 9.44165C48.472 9.34931 47.5794 9.31853 47.1177 9.44165C46.3174 9.59556 46.2558 9.71868 46.2866 10.9499C46.2866 11.9349 46.4097 12.3042 46.7483 12.3042C47.0869 12.3042 47.1484 12.5505 46.9945 13.2584C46.9022 13.7817 46.8098 14.3973 46.8098 14.6128C46.8098 14.8282 46.502 15.1052 46.1327 15.1976C45.4555 15.3823 45.4555 15.413 45.9788 15.8132C46.9945 16.6135 46.4713 17.5369 44.9322 17.5369C44.2859 17.5369 44.1627 17.937 43.8857 21.169C43.6703 23.5698 43.9473 24.3086 44.9938 24.3086C45.4555 24.3086 45.5479 24.4625 45.4247 24.9857C45.3632 25.3859 45.1477 26.8633 44.963 28.31C44.7783 29.7567 44.5013 31.4188 44.3166 32.0344C43.8242 33.9428 43.1778 40.4375 43.4548 40.7761C43.5779 40.9607 43.5779 41.2993 43.424 41.5456C42.439 43.0846 43.9781 55.2121 45.1785 55.6122C45.3632 55.6738 45.6094 55.4583 45.7325 55.1197C46.0403 54.1655 46.2866 54.3194 47.0869 56.0123C47.9795 57.8592 48.0718 57.9515 49.7955 58.0131L51.1191 58.0439V56.3509C51.1191 55.3967 51.2422 54.4426 51.3961 54.2271C51.7963 53.5807 52.812 53.9193 52.9044 54.7196C53.0583 55.7969 53.9509 56.1047 55.4899 55.5506C56.2286 55.3044 57.1213 55.0889 57.4906 55.0889C58.1062 55.0889 58.1678 54.9043 58.2909 52.6881C58.5064 49.4254 58.9989 46.4704 59.399 46.0703C59.7992 45.6701 63.9853 45.7625 66.3554 46.1934C67.2172 46.3473 69.8028 46.5012 72.1421 46.5012C76.0204 46.5012 76.359 46.5628 76.359 47.0553C76.359 47.3631 76.5745 47.794 76.8207 48.0095C77.0669 48.2249 77.2824 48.5943 77.2824 48.8405C77.2824 49.5485 78.8214 52.3187 79.2831 52.5342C79.5294 52.6265 79.7448 52.8728 79.7448 53.0882C79.7448 53.5807 80.5759 54.4733 81.0068 54.4733C81.1607 54.4733 81.2839 54.2579 81.2839 54.0116C81.2839 53.4576 81.6532 53.4268 82.1149 53.8885C82.3612 54.1347 82.6074 54.0116 82.9768 53.4268C83.5924 52.5034 84.0233 52.4418 85.2853 53.0882C86.2395 53.5807 86.5165 53.3652 85.8394 52.6881C85.5315 52.3803 85.7778 52.3495 86.8243 52.5034C88.0555 52.6573 88.2402 52.5957 88.5172 51.9493C88.7019 51.58 89.256 51.0875 89.7485 50.9336C91.2259 50.4411 91.4414 50.1949 91.4414 49.056C91.4414 46.6859 86.0856 36.7746 83.0383 33.5119C81.4993 31.8498 77.7441 28.5255 75.8973 27.2327C75.0662 26.6171 75.0354 26.5555 75.4664 25.4474L75.8665 24.3086L73.8966 22.3694C71.9574 20.4918 67.3096 15.413 66.6632 14.4896C66.5093 14.2434 65.7706 13.4739 65.0318 12.7659C64.3239 12.0272 63.5851 11.0115 63.4005 10.4574C63.0311 9.47243 62.1385 8.91839 60.8149 8.91839C60.4148 8.91839 59.9223 8.61058 59.6145 8.14888C59.3375 7.71795 58.9065 7.37937 58.6603 7.37937C58.414 7.37937 58.0447 7.10235 57.8292 6.76376C57.2752 5.87113 56.3825 5.99425 56.0132 6.97922L55.7054 7.84107L54.782 6.82532C53.8278 5.77879 52.8428 5.53255 52.535 6.30206ZM46.3789 20.8304C46.0711 21.1382 45.7941 20.6765 46.0711 20.2763C46.2558 19.9378 46.3174 19.9378 46.4405 20.2763C46.502 20.4918 46.4713 20.738 46.3789 20.8304ZM62.0769 26.9557C62.5386 27.0788 63.185 28.033 64.17 29.9414C64.9395 31.5112 65.5859 32.9271 65.5859 33.1425C65.5859 33.635 63.6467 34.1583 61.7691 34.1583C60.5995 34.1583 60.3224 34.0659 60.4763 33.6966C60.5687 33.4503 60.3532 32.6501 60.0454 31.9421C59.3682 30.4339 59.2759 28.7102 59.7992 27.5405C60.1377 26.771 60.7841 26.6171 62.0769 26.9557Z" fill="#222222"/>
<path d="M165.006 7.90267C163.898 8.14891 162.513 8.6414 161.898 8.9492C161.282 9.257 160.451 9.53403 160.051 9.53403C157.896 9.56481 157.065 9.74949 156.265 10.242C155.772 10.5806 155.126 10.7345 154.756 10.6421C154.387 10.5498 153.956 10.6113 153.802 10.7345C153.618 10.8884 153.064 11.073 152.54 11.1654C151.309 11.3808 149.493 12.0888 148.908 12.5813C148.631 12.7967 148.385 13.4124 148.323 13.9356C148.262 14.7359 148.077 14.9206 147.308 15.0745C146.784 15.1976 145.984 15.5362 145.492 15.844C144.753 16.3365 144.661 16.552 144.845 17.4138C144.938 17.9678 144.876 18.4911 144.691 18.6142C144.537 18.7066 144.383 19.0144 144.383 19.2914C144.383 19.5684 144.106 20.3995 143.737 21.1074C142.814 23.0466 141.921 28.9872 142.106 32.1576C142.598 40.9608 145.307 52.0109 146.969 52.0109C147.246 52.0109 147.462 52.288 147.462 52.6265C147.462 52.9959 147.646 53.6731 147.892 54.1348C148.262 54.8427 148.508 54.9659 149.278 54.8427C149.801 54.7812 150.847 54.8119 151.617 54.9043C152.725 55.089 153.002 55.2429 153.002 55.7354C153.002 56.0432 153.094 56.3202 153.187 56.3202C154.326 56.3202 159.928 57.4283 161.005 57.8592C162.605 58.5364 166.484 59.5213 169.162 59.9523C172.086 60.414 175.379 59.8291 176.549 58.6595C177.626 57.613 177.996 56.628 177.78 55.3968C177.657 54.7196 177.442 54.104 177.288 53.9809C176.764 53.6731 177.011 52.6265 177.78 52.1341C178.796 51.4569 178.765 51.0567 177.472 49.056C176.888 48.1326 176.395 47.1169 176.395 46.8091C176.395 46.5012 176.21 46.1627 175.964 46.0703C175.718 45.978 175.595 45.6394 175.656 45.3316C175.749 44.9315 175.472 44.6236 174.641 44.2543C170.331 42.3151 168.854 42.0381 165.006 42.469C163.406 42.6537 161.744 42.9307 161.313 43.0846C160.882 43.2385 159.897 43.4232 159.066 43.5463C157.865 43.7002 157.588 43.6387 157.404 43.2078C157.28 42.8999 157.342 42.6229 157.527 42.5614C158.389 42.2536 158.85 41.5764 159.004 40.3144C159.22 38.5291 160.205 37.4518 161.467 37.6365C162.513 37.7904 165.837 37.0825 166.484 36.5592C166.699 36.3437 166.822 35.9128 166.73 35.5127C166.607 35.0202 166.761 34.7124 167.284 34.343C167.715 34.0968 168.115 33.5735 168.238 33.2349C168.361 32.8963 168.7 32.6193 169.069 32.6193C169.593 32.6193 169.623 32.6809 169.316 33.081C168.854 33.6351 169.1 34.0044 169.777 33.7274C170.978 33.2657 170.547 31.9114 169.008 31.3265C168.331 31.0803 168.3 30.9879 168.731 30.6801C169.5 30.0953 169.716 28.7102 169.1 28.3716C168.331 27.9715 163.467 27.1404 160.666 26.8942C158.327 26.7403 158.296 26.7095 158.112 25.7553C158.019 25.232 158.019 24.7087 158.142 24.6164C158.358 24.4317 161.343 23.7238 163.775 23.2621C164.883 23.0466 160.143 23.3544 158.85 23.5699C157.896 23.7238 157.711 23.6622 157.311 22.9235C157.003 22.3387 156.973 22.0616 157.219 21.9077C157.404 21.7846 160.235 21.8154 163.498 21.9385C173.656 22.3387 174.302 22.3079 175.749 20.9535C176.734 20.0301 177.011 18.6758 176.426 17.5677C176.21 17.1983 176.303 16.7982 176.703 16.1518C177.011 15.6901 177.195 15.1053 177.103 14.8898C177.041 14.6743 177.257 14.305 177.596 14.0895C178.519 13.5047 178.396 13.2892 177.103 13.1661C176.272 13.1045 175.903 12.9199 175.841 12.5197C175.749 12.1196 175.933 11.9965 176.641 11.9965C177.349 11.9965 177.626 11.8118 177.934 11.073C178.273 10.2112 178.242 10.1189 177.318 9.31856C175.072 7.41018 174.979 7.3794 170.855 7.41018C168.577 7.41018 166.176 7.62564 165.006 7.90267Z" fill="#222222"/>
<path d="M25.325 11.2885C24.3093 13.5663 23.8783 16.552 24.2785 18.2141C24.5863 19.4453 24.5247 26.7403 24.1862 28.4332C24.1246 28.741 24.2785 30.1261 24.5247 31.5112C24.771 32.8656 24.9557 34.0352 24.9557 34.066C24.9557 34.1276 24.771 34.1583 24.5863 34.1583C23.9091 34.1276 22.7703 32.9271 19.8769 29.2335C18.3687 27.2943 16.8604 25.4475 16.5834 25.1705C16.2756 24.8627 16.0294 24.5241 16.0294 24.4317C16.0294 24.3086 14.952 23.139 13.5977 21.7846C11.2584 19.4145 11.1353 19.353 10.058 19.5377C8.64207 19.8147 8.58051 19.1991 9.90406 17.9063C10.9506 16.8905 10.9198 15.9364 9.8425 15.3823C9.5347 15.1976 9.25767 14.7667 9.25767 14.4589C9.25767 13.9972 9.04221 13.8433 8.48816 13.8433C7.31851 13.8433 6.3951 14.3973 5.56403 15.567C4.88686 16.5827 4.79452 16.6443 4.42516 16.121C4.20969 15.8132 4.02501 15.3823 4.02501 15.1361C4.02501 14.859 3.80955 14.7975 3.34784 14.9206C2.7938 15.0745 2.76302 15.0437 3.1016 14.7975C3.71721 14.3666 3.19394 13.9356 2.54755 14.3666C2.20897 14.5512 2.05507 15.0129 2.08585 15.567C2.14741 16.3673 2.11663 20.3687 2.05507 22.5234C2.02429 22.9851 1.77805 23.5391 1.47024 23.7546C0.823855 24.2471 0.39293 26.0631 0.485271 27.8484C0.700733 31.6343 0.639173 34.6508 0.331369 37.2364C-0.00721506 39.8219 -0.0995562 45.701 0.115906 47.6094C0.177467 47.9787 0.485271 48.5943 0.793074 48.9329C1.224 49.4254 1.28556 49.6409 1.00854 49.9179C0.485271 50.4411 0.546831 51.2414 1.10088 51.7031C1.43946 51.9802 1.50102 52.1956 1.25478 52.4419C0.762294 52.9344 0.854635 53.9501 1.40868 53.7346C1.99351 53.5192 1.99351 53.8578 1.40868 54.6888C0.946976 55.3352 0.916196 55.6738 0.946976 58.7518C0.946976 59.6753 0.885415 60.4755 0.793074 60.5679C0.42371 60.9372 1.40868 61.5529 2.33209 61.5529C3.34784 61.5529 5.81027 60.3524 6.48744 59.5521C6.7029 59.3059 7.16461 59.0904 7.53397 59.0904C9.04221 59.0596 9.5347 57.7669 9.5347 53.7962C9.5347 51.4569 9.62704 50.6258 10.0887 49.9794C10.3658 49.5177 10.6428 48.8406 10.6428 48.502C10.6428 48.1326 10.7967 47.4247 10.9814 46.9322C11.1968 46.4089 11.5046 45.4239 11.6893 44.6852C11.9048 43.9773 12.1818 43.3924 12.3357 43.3924C12.6743 43.3924 16.1833 46.9937 16.8912 48.1018C17.1682 48.4712 17.9993 49.487 18.7688 50.3796C19.5383 51.2414 20.4925 52.3803 20.8927 52.9036C21.2928 53.4268 21.7853 53.8578 22.0315 53.8578C22.247 53.8578 22.4932 54.1348 22.5856 54.4734C22.6779 54.8427 23.0165 55.089 23.3551 55.089C24.1246 55.089 24.494 54.1963 23.8783 53.9501C23.1396 53.6731 23.9399 52.9344 24.9557 52.9344C25.8175 52.9344 26.8025 53.7346 26.8025 54.5042C26.8333 54.7504 27.1103 54.5657 27.5412 54.0424C28.1568 53.3037 28.3723 53.2422 28.8955 53.5192C29.2957 53.7346 30.1268 53.7654 31.1733 53.6115C32.4661 53.4268 32.8047 53.2729 32.897 52.7805C32.9278 52.4419 33.1125 51.6724 33.2971 51.0568C33.5742 50.2257 33.5434 49.6409 33.2664 48.8098C32.8354 47.4862 32.897 47.3631 33.7896 47.5786C34.3437 47.7325 34.436 47.9172 34.3129 48.5943C34.2205 49.0252 34.3129 49.7948 34.4976 50.318C34.8669 51.2414 34.8669 51.2414 35.2979 49.2407C35.5441 48.1326 35.698 47.0245 35.6057 46.7475C35.5441 46.4705 35.6057 45.4855 35.7596 44.5929C36.1905 41.8842 36.1905 39.6372 35.6057 26.0015C35.5441 25.1397 35.421 24.2471 35.2979 23.97C35.144 23.6314 35.421 23.2313 36.1905 22.6157C37.237 21.8462 37.2986 21.6923 37.1755 20.4303C37.1139 19.5684 37.2062 18.8605 37.4833 18.4603C37.8219 17.9679 37.8834 17.383 37.7295 16.2134C37.4833 14.4897 36.7138 13.4739 35.421 13.1046C33.451 12.5505 32.62 11.5963 33.7281 11.1962C34.3437 10.9499 34.3129 10.2728 33.6665 10.0265C33.3279 9.90341 32.9893 9.99575 32.7739 10.2728C32.3429 10.8884 31.6042 10.9192 31.8505 10.3036C32.0967 9.5956 31.0194 9.71872 30.5577 10.4575C30.3422 10.796 29.9729 11.0731 29.7266 11.0731C29.4804 11.0731 29.2649 10.796 29.2649 10.4575C29.2649 9.71872 29.0802 9.68794 28.4338 10.3036C28.0029 10.7345 27.9106 10.7345 27.4489 10.3036C26.5562 9.53404 26.0022 9.78028 25.325 11.2885ZM26.9256 11.1962C26.8333 11.4424 26.5562 11.5655 26.31 11.4732C25.6636 11.227 25.7867 10.7653 26.4947 10.7653C26.8948 10.7653 27.0487 10.9192 26.9256 11.1962Z" fill="#222222"/>
<path d="M111.294 10.9191C108.001 11.9349 101.26 15.6285 98.2744 18.0602C97.3202 18.8297 97.5664 19.3222 98.6745 18.8297C99.5671 18.3987 99.9365 18.7989 99.444 19.7223C99.0439 20.4303 97.3817 21.2305 96.2429 21.2305C95.2271 21.2305 94.1498 23.2928 94.1806 25.2012C94.2114 27.8175 94.396 30.6186 94.5807 31.0803C95.0424 32.1884 95.2271 33.5427 95.2271 35.605C95.1963 37.6057 95.2887 37.8519 95.8119 37.8519C96.643 37.8519 96.8585 38.683 96.1813 39.4217C95.6888 39.9758 95.6888 40.0681 96.1197 40.5298C96.5199 40.8992 96.5507 41.1454 96.2736 41.5764C96.0274 41.9765 96.0274 42.5921 96.3044 43.9465C96.5199 44.9314 96.6738 46.0087 96.6738 46.3473C96.6738 47.7632 97.3202 49.2407 97.905 49.2407C98.4898 49.2407 98.4898 49.2715 97.9666 49.7947C97.1355 50.6258 97.3817 52.8112 98.4898 54.4733C98.7976 54.9043 99.1978 55.8277 99.4132 56.5664C99.9057 58.2901 100.491 58.4748 101.722 57.2744C102.245 56.7511 102.799 56.3202 102.891 56.3202C103.015 56.3202 103.476 56.6587 103.938 57.0897C104.461 57.5822 104.984 57.7976 105.262 57.6745C105.539 57.5514 106.062 57.3975 106.462 57.3359C106.831 57.2436 107.139 56.9973 107.139 56.8126C107.139 56.5972 107.324 56.197 107.539 55.8892C107.878 55.4275 108.093 55.366 108.555 55.643C108.924 55.8585 109.325 55.8585 109.694 55.643C110.094 55.4583 110.402 55.4583 110.71 55.7046C111.448 56.3509 111.479 55.4891 110.864 50.7797C110.371 46.8706 110.34 46.255 110.74 45.8241C110.987 45.5163 111.264 44.5313 111.356 43.5771C111.448 42.6229 111.664 41.761 111.818 41.6687C112.002 41.5456 112.649 42.0073 113.295 42.6229C114.157 43.454 114.65 43.731 115.142 43.6079C115.573 43.4847 116.096 43.7618 116.896 44.5005C117.512 45.0853 118.128 45.547 118.312 45.547C118.466 45.547 119.082 46.0703 119.667 46.6859C120.344 47.4554 120.775 47.7324 120.867 47.4554C121.175 46.7475 121.883 47.086 122.591 48.3173C122.991 48.9944 123.637 49.6716 124.068 49.8255C124.499 49.9794 125.669 50.9028 126.685 51.857C128.716 53.7346 131.117 55.4891 132.471 55.9816C132.964 56.1663 133.98 56.3202 134.78 56.3202C138.443 56.3202 141.767 51.857 141.028 47.9479C140.751 46.3781 138.658 42.6845 137.396 41.484C136.473 40.6222 123.237 33.8505 122.468 33.8505C122.191 33.8505 121.821 33.6658 121.637 33.4503C121.452 33.2041 120.744 32.8347 120.067 32.6193C118.436 32.0652 118.128 31.6651 118.713 30.834C119.082 30.3108 119.359 30.1876 120.005 30.3723C120.467 30.4647 120.99 30.7725 121.175 31.0187C121.483 31.4496 121.729 31.4188 123.176 30.834C124.099 30.4647 125.33 30.0645 125.915 29.9414C127.639 29.6336 129.27 28.4024 129.947 26.9865C130.963 24.7087 130.532 19.0759 129.332 19.0759C129.147 19.0759 128.993 18.8297 128.993 18.5219C128.993 17.7831 127.393 15.5054 126.007 14.305C124.776 13.1969 121.575 11.5347 118.682 10.4882C117.266 9.96493 113.665 10.1804 111.294 10.9191ZM114.219 21.5383C114.557 21.723 115.296 22.3694 115.912 22.985C116.743 23.8469 116.989 24.3394 116.989 25.232C116.989 26.217 116.773 26.5863 115.604 27.6636C114.865 28.3408 114.065 28.9564 113.849 28.9872C113.634 29.018 112.957 29.0795 112.372 29.1103C111.787 29.1719 110.833 29.295 110.279 29.4181C109.047 29.6644 107.939 28.8641 108.247 27.9407C108.34 27.6329 108.278 27.2019 108.124 26.9865C107.97 26.771 107.724 26.0631 107.601 25.3859C107.508 24.7087 107.17 23.9084 106.924 23.6314C106.647 23.3236 106.524 22.8927 106.616 22.6464C107.016 21.5999 112.772 20.7688 114.219 21.5383ZM100.675 53.396C100.675 53.8577 99.2593 54.381 98.9208 54.0424C98.6129 53.7654 99.4748 52.9343 100.09 52.9343C100.429 52.9343 100.675 53.1498 100.675 53.396Z" fill="#222222"/>
</svg>
