<svg width="562" height="63" viewBox="0 0 562 63" fill="none" xmlns="http://www.w3.org/2000/svg">
<path d="M231.307 0.515354C230.938 1.71579 230.63 1.99281 229.799 1.90047C229.029 1.80813 228.968 1.86969 229.153 2.57764C229.368 3.47027 228.475 4.14744 227.49 3.83963C225.582 3.22403 223.643 7.28703 225.49 7.99498C226.382 8.33357 226.475 9.07229 225.767 9.87258C225.428 10.2419 225.367 10.5805 225.582 10.9191C225.736 11.2269 225.767 11.9964 225.613 12.7352C225.028 15.6901 225.49 25.3243 226.259 26.3093C226.413 26.4632 226.598 27.1711 226.721 27.8483C227.06 29.6951 227.614 30.4031 228.568 30.2184C229.122 30.1261 229.491 30.2492 229.799 30.6493C230.415 31.4804 230.384 31.819 229.46 32.8963C228.629 33.912 228.66 34.7739 229.522 34.7739C229.891 34.7739 229.984 34.9278 229.799 35.4511C229.491 36.4668 229.337 38.5291 229.522 39.1755C229.645 39.5756 229.861 39.668 230.322 39.5141C230.907 39.3294 230.938 39.4217 230.753 40.499C230.63 41.1762 230.291 41.9149 230.014 42.1612C229.707 42.4074 229.522 42.8691 229.583 43.2077C229.645 43.5155 229.553 43.9157 229.368 44.1003C228.876 44.5928 228.937 44.8699 229.676 45.0853C230.168 45.2392 230.291 45.4855 230.168 46.0395C230.107 46.4397 230.168 46.809 230.322 46.8398C230.476 46.9014 230.476 47.517 230.291 48.3173C230.107 49.1791 230.076 49.7332 230.261 49.7947C230.445 49.8563 230.568 50.6566 230.568 51.58C230.568 53.1498 230.599 53.2421 231.338 53.2421C231.769 53.2421 232.107 53.3652 232.107 53.5499C232.107 53.7038 231.923 53.8577 231.677 53.8577C230.999 53.8577 230.753 54.4425 230.661 56.1662C230.476 60.1677 230.568 61.2758 231.153 61.9837C231.677 62.5993 232.2 62.5993 233.431 61.953C234.201 61.5528 234.293 61.3989 233.893 61.3066C233.246 61.1834 233.216 60.968 233.739 60.2908C234.385 59.429 235.401 59.2751 235.801 60.0138C236.078 60.5371 236.232 60.5986 236.601 60.2908C236.848 60.1061 237.032 59.7368 237.032 59.5213C237.032 59.2751 237.155 59.0904 237.309 59.0904C237.463 59.0904 238.079 58.6287 238.725 58.0439C239.895 56.9665 240.726 56.8742 240.726 57.8592C240.726 58.5979 241.496 59.1827 242.234 58.9365C242.665 58.8134 242.881 58.9365 243.035 59.3982C243.312 60.3216 245.035 62.1069 245.066 61.5528C245.097 61.3066 245.158 60.5371 245.22 59.8599C245.281 59.1827 245.374 58.0746 245.466 57.3975C245.712 54.9043 245.959 50.8105 246.082 46.3473C246.174 43.731 246.359 41.6379 246.543 41.4532C246.974 41.0223 247.775 42.0381 247.805 42.9923C247.805 43.3924 247.929 43.7002 248.052 43.7002C248.483 43.7002 249.037 42.9923 249.037 42.4074C249.037 42.0073 249.283 41.8534 249.806 41.8534C250.545 41.8534 250.576 41.761 250.422 40.8376L250.206 39.7911L252.33 40.0989C253.469 40.2528 254.608 40.5606 254.823 40.7761C255.131 41.0531 255.224 42.0381 255.224 44.285C255.193 46.809 255.285 47.4554 255.654 47.5785C255.901 47.7016 256.116 47.9787 256.116 48.1941C256.116 48.4404 256.455 48.779 256.886 48.9329C257.563 49.1791 257.655 49.4253 257.655 50.6566C257.655 52.0109 258.671 54.4733 259.225 54.4733C259.348 54.4733 259.564 54.104 259.717 53.6423C259.933 52.9959 260.21 52.842 261.072 52.8112C262.272 52.7496 262.611 52.9959 263.165 54.381C263.596 55.4275 264.304 55.4583 264.027 54.4425C263.934 54.1347 264.027 53.7346 264.242 53.5807C264.735 53.1498 266.274 52.8112 266.304 53.119C266.551 56.2586 266.766 57.0281 267.474 57.459C268.305 57.9823 269.567 57.4898 270.029 56.4741C270.398 55.643 271.506 55.3967 271.506 56.1662C271.506 56.4125 271.66 56.628 271.814 56.628C272.091 56.628 272.276 55.5506 272.06 55.3044C271.999 55.2736 272.368 54.5657 272.861 53.7346C273.63 52.4418 273.784 51.7954 273.907 49.333C274 47.5477 273.938 46.3473 273.723 46.0703C273.538 45.8548 273.322 44.3774 273.261 42.7768C273.199 41.1762 272.922 38.406 272.707 36.6515C272.368 34.0352 272.153 33.2657 271.568 32.6501C270.891 31.9421 270.86 31.6651 271.045 30.1568C271.322 27.756 271.291 27.2943 270.737 26.9865C270.398 26.8018 270.337 26.5863 270.521 26.3709C270.706 26.1554 270.706 25.2628 270.583 24.2162C270.429 23.2313 270.367 21.7538 270.46 20.9227C270.521 20.0609 270.46 19.3529 270.275 19.2298C270.09 19.1067 270.029 18.7373 270.152 18.3987C270.244 18.0294 270.183 17.66 269.967 17.5369C269.567 17.2907 268.952 14.6128 268.952 13.0737C268.952 12.5813 268.798 12.0272 268.582 11.8425C268.336 11.6578 268.121 10.6113 268.059 9.07229C267.997 7.31781 267.751 6.20972 267.259 5.19397C266.889 4.42446 266.581 3.50105 266.581 3.13168C266.581 2.76232 266.212 2.23905 265.781 1.93125C265.32 1.62345 264.642 1.0694 264.242 0.730816L263.534 0.0536481L262.58 0.915498C261.441 1.93125 258.64 2.42374 258.086 1.71579C257.624 1.0694 257.132 1.53111 257.163 2.57764C257.193 3.07012 257.009 3.53183 256.824 3.59339C256.609 3.68573 256.424 3.53183 256.424 3.25481C256.424 2.97778 256.27 2.76232 256.085 2.76232C255.839 2.76232 255.808 3.1009 255.931 3.71651C256.024 4.27056 255.993 4.85538 255.839 5.04007C255.716 5.22475 255.501 6.3944 255.408 7.6564C255.285 9.25698 255.07 10.0265 254.7 10.3035C254.269 10.5805 254.208 10.9191 254.392 11.8733C254.516 12.5197 254.669 13.8433 254.731 14.7667C254.823 16.1518 254.762 16.5519 254.208 17.1367C253.561 17.8139 253.561 17.8755 254.115 18.4603C254.392 18.7681 254.577 19.2606 254.485 19.5068C254.392 19.7531 254.516 20.1224 254.762 20.3071C255.377 20.8304 255.316 21.5383 254.639 21.5383C254.3 21.5383 253.9 21.8769 253.715 22.3078C253.377 23.0158 253.438 23.1389 254.115 23.3852C254.793 23.6314 254.885 23.8776 254.885 25.1704C254.885 26.2785 254.731 26.8326 254.269 27.2327C253.931 27.5405 253.654 28.033 253.654 28.3716C253.654 28.6794 253.531 28.9256 253.377 28.9256C253.223 28.9256 252.823 29.018 252.515 29.1103C252.053 29.295 252.022 29.2334 252.361 28.8948C253.13 28.0638 252.669 27.9714 249.191 28.1869C245.128 28.4331 244.42 28.1869 243.804 26.2785C243.404 25.0781 243.65 24.6164 244.82 24.6164C245.097 24.6164 245.343 24.4933 245.343 24.3394C245.343 24.1855 244.974 24.0623 244.543 24.0623C243.404 24.0931 243.035 23.5698 241.988 20.461C240.172 15.0745 239.495 13.1969 239.156 12.5197C238.941 12.1503 238.756 11.073 238.725 10.1496C238.694 9.07229 238.417 7.99498 238.017 7.22547C237.648 6.5483 237.34 5.80958 237.34 5.59411C237.34 5.16319 235.555 4.30134 234.631 4.30134C234.293 4.30134 233.831 4.08588 233.616 3.80885C233.277 3.40871 233.308 3.28559 233.739 3.00856C234.416 2.6392 234.077 2.05437 233.308 2.30061C232.692 2.51608 232.631 2.39296 232.292 0.823157C232.077 -0.131034 231.553 -0.284936 231.307 0.515354ZM257.901 39.8219C257.994 40.4375 257.901 40.6529 257.594 40.5606C257.378 40.4683 257.163 40.0373 257.101 39.5756C257.009 38.96 257.101 38.7446 257.409 38.8369C257.624 38.9292 257.84 39.3602 257.901 39.8219ZM242.327 45.7009C242.327 45.8548 242.173 46.0395 241.988 46.1011C241.803 46.1626 241.649 45.978 241.649 45.7009C241.649 45.4239 241.803 45.2392 241.988 45.3008C242.173 45.3623 242.327 45.547 242.327 45.7009ZM242.727 53.6423C242.696 54.5657 242.573 55.4583 242.45 55.6738C242.05 56.2894 242.511 56.9973 243.219 56.8742C244.019 56.7511 244.604 57.5514 244.297 58.3517C244.143 58.7826 244.019 58.8134 243.835 58.5056C243.681 58.2901 243.404 58.167 243.158 58.1978C242.911 58.2593 242.419 58.1054 242.019 57.8899C241.372 57.5514 241.311 57.3667 241.526 55.8277C241.68 54.4118 241.649 54.1655 241.218 54.1655C240.541 54.1655 240.541 52.2264 241.218 51.5492C241.68 51.1183 241.773 51.1183 242.234 51.5184C242.634 51.8878 242.757 52.4418 242.727 53.6423ZM238.264 57.5514C238.264 57.7053 238.14 57.8592 237.956 57.8592C237.802 57.8592 237.648 57.7053 237.648 57.5514C237.648 57.3667 237.802 57.2436 237.956 57.2436C238.14 57.2436 238.264 57.3667 238.264 57.5514Z" fill="#222222"/>
<path d="M440.337 0.299878C432.919 1.65421 431.133 1.80812 427.317 1.37719C425.808 1.19251 425.285 1.22329 424.854 1.59265C424.577 1.86968 423.685 2.36216 422.915 2.70075C421.53 3.28557 420.545 4.11664 419.683 5.40942C419.067 6.30205 418.329 9.31852 418.329 10.8575C418.329 11.5655 418.175 12.6428 417.99 13.2276C417.805 13.8125 417.528 15.5362 417.405 17.0752C417.251 18.5834 416.974 21.446 416.759 23.3852C416.451 26.2169 416.482 28.3408 416.79 33.8505C417.221 41.3609 417.221 44.0696 416.759 45.6086C416.605 46.1626 416.482 47.6401 416.482 48.9021V51.149L417.805 52.3187L419.098 53.4883L418.421 54.8427C417.836 55.92 417.744 56.4433 417.929 57.7976C418.083 59.2751 418.206 59.4905 419.221 59.983C420.576 60.691 425.224 61.0295 427.717 60.6294C428.917 60.4447 429.779 60.0753 430.456 59.4597C431.01 58.998 431.903 58.4132 432.457 58.167C433.442 57.7668 433.596 57.7976 435.72 58.9057C437.536 59.8907 438.213 60.0753 439.598 60.0446C440.521 60.0446 442.153 60.0138 443.261 60.0138C445.477 59.983 447.97 59.2751 449.048 58.3516C449.879 57.6129 449.879 57.5206 449.078 56.6587L448.432 55.9816L449.14 54.5964C449.756 53.4576 449.817 53.1498 449.478 52.6265C449.294 52.2879 449.109 51.6107 449.109 51.0875C449.109 50.595 448.986 50.1641 448.801 50.1641C448.647 50.1641 448.494 49.887 448.494 49.5485C448.494 49.1175 448.216 48.9021 447.416 48.7482C446.831 48.6558 446.339 48.4404 446.339 48.3172C446.339 47.9787 447.662 47.6709 447.878 47.9787C447.97 48.1326 448.494 48.1633 449.048 48.1018C450.279 47.9171 450.34 47.1476 449.263 46.0087C448.586 45.2392 448.432 45.2084 447.416 45.547C445.908 46.0395 444.492 45.7009 444.492 44.8083C444.492 44.4389 444.646 43.9772 444.831 43.7925C445.477 43.1461 444.8 42.8383 442.553 42.6537C437.32 42.2227 434.642 42.0688 432.088 42.0381L429.41 42.0073L429.594 40.4683C429.841 38.1905 429.841 38.1905 431.164 38.3752C432.18 38.4983 432.58 38.3444 434.027 37.2671C434.95 36.5899 436.859 35.2664 438.274 34.3122C440.244 32.9886 440.798 32.4654 440.798 31.8805C440.798 31.388 441.168 30.9263 441.968 30.4031C444.523 28.7102 445.785 27.9714 446.524 27.6636C447.17 27.4174 447.262 27.2943 446.954 26.9249C446.77 26.6787 446.031 26.3708 445.323 26.2477C444.338 26.0323 444.03 25.8476 444.03 25.3859C444.03 24.6164 445.569 24.0315 447.662 24.0315C448.74 24.0008 449.109 23.8776 449.109 23.5391C449.109 23.2928 448.863 23.0773 448.524 23.0773C448.216 23.0773 447.57 22.7695 447.108 22.431C446.277 21.7538 445.415 21.6922 430.918 21.5383C430.21 21.5383 430.087 21.3844 429.902 20.2456C429.656 18.7065 429.871 18.4295 431.626 18.1525C434.827 17.5984 436.335 17.1983 437.136 16.675C439.444 15.1976 442.522 12.8275 442.676 12.3966C442.768 12.1195 443.661 11.4732 444.677 10.9499C448.155 9.07228 448.155 9.07228 447.909 7.01C447.878 6.91766 447.201 6.39439 446.339 5.87112C445.2 5.16318 444.861 4.79381 445.015 4.42445C445.169 3.99352 445.569 3.93196 447.786 4.08586C449.94 4.23976 450.402 4.20898 450.556 3.80884C450.74 3.28557 449.756 2.33138 447.693 1.06939C446.247 0.176756 442.891 -0.161828 440.337 0.299878ZM448.032 46.7782C447.047 47.4246 446.647 47.3631 447.262 46.6243C447.478 46.3781 447.939 46.1626 448.309 46.1626C448.894 46.1626 448.863 46.2242 448.032 46.7782Z" fill="#222222"/>
<path d="M358.707 1.28487C358.492 1.50033 358.184 2.08516 358.03 2.54686C357.845 3.00857 357.445 3.47028 357.168 3.5934C356.399 3.87042 353.659 6.39441 352.921 7.53328C352.551 8.02577 352.028 9.0723 351.72 9.84181C351.412 10.6113 351.043 11.504 350.889 11.8425C350.643 12.3966 349.658 15.1976 349.165 16.6751C349.073 16.9829 348.858 17.2291 348.673 17.2291C348.488 17.2291 346.518 15.4131 344.333 13.2277C340.147 9.04152 334.852 5.07085 334.668 5.96349C334.545 6.57909 333.744 6.82534 333.067 6.45597C331.836 5.80958 329.681 6.42519 329.681 7.44094C329.681 7.90265 329.527 7.96421 328.85 7.81031C327.065 7.3486 324.172 7.90265 323.341 8.85684C323.094 9.13386 322.417 9.93415 321.832 10.6421C320.724 11.9657 318.908 16.0594 318.908 17.2907C318.908 17.66 318.693 18.7681 318.447 19.6915C317.769 22.1847 317.338 29.8798 317.4 38.4368C317.462 48.2557 317.831 49.4561 320.293 47.5785C321.648 46.532 322.048 46.5936 322.602 47.794C323.033 48.7174 323.187 48.779 324.541 48.779C325.68 48.779 326.111 48.6559 326.357 48.2249C326.511 47.9171 326.88 47.7017 327.188 47.7632C327.496 47.8248 328.235 47.4862 328.85 46.9937C329.435 46.532 330.082 46.1626 330.235 46.1626C331.313 46.1626 332.452 41.9765 333.221 35.2972C333.437 33.2965 333.714 31.5727 333.806 31.4804C333.898 31.3881 334.175 31.4804 334.452 31.6959C334.729 31.9113 335.006 32.0037 335.099 31.9113C335.468 31.5727 334.945 30.7725 334.145 30.4647C333.56 30.2492 333.375 29.9414 333.375 29.2642C333.375 28.1253 333.775 27.8483 334.422 28.4947C334.976 29.0488 335.068 28.8333 334.606 27.9714C334.422 27.6636 334.052 27.3866 333.806 27.3866C333.467 27.3866 333.375 27.1096 333.437 26.217C333.498 25.3243 333.652 25.0781 334.145 25.0781C334.575 25.0781 335.037 25.6321 335.776 27.048C336.33 28.1253 337.376 29.6951 338.084 30.557C338.792 31.4188 339.87 32.9271 340.454 33.9428C341.532 35.7589 342.363 36.4053 344.764 37.2979C345.349 37.5134 346.149 38.0058 346.518 38.406C347.011 38.9293 347.38 39.0832 347.749 38.9293C348.057 38.7754 348.519 38.7138 348.827 38.7446C349.104 38.7754 349.812 38.5907 350.427 38.3444C351.505 37.9135 351.535 37.8212 351.535 36.3129C351.535 35.4511 351.812 33.9736 352.12 32.9886C352.459 32.0345 352.767 30.8956 352.828 30.4647C352.89 30.003 353.259 29.5412 353.844 29.2334C354.367 28.9872 354.798 28.7717 354.829 28.7717C354.829 28.7717 354.952 28.2177 355.075 27.5713C355.26 26.5863 355.229 26.4324 354.89 26.6171C354.521 26.8326 354.552 26.8018 354.89 26.3401C355.691 25.3551 355.845 25.9399 357.23 35.0817C357.476 36.6823 357.845 38.7754 358.03 39.6988C358.215 40.6222 358.492 42.0073 358.615 42.7768C359.138 45.7009 359.538 47.9171 359.846 49.3946C360.031 50.2257 360.308 52.7189 360.462 54.935C360.77 58.5363 360.862 58.9981 361.539 59.706L362.309 60.4447L363.201 59.7676C363.724 59.3982 364.463 59.0904 364.863 59.0904C365.294 59.0904 366.125 58.8749 366.741 58.6287C367.695 58.2285 367.849 58.0131 367.849 57.1205C367.849 56.5356 368.034 56.0124 368.249 55.9508C368.434 55.8585 369.696 55.8277 370.989 55.8585C372.959 55.8892 373.482 55.7969 373.913 55.3352C374.959 54.1963 377.083 46.2858 377.237 42.9307C377.329 41.0531 376.806 36.6823 376.283 34.7739C376.006 33.8505 375.329 31.542 374.744 29.6951C374.19 27.8175 373.574 25.7245 373.42 24.9858C373.266 24.2778 372.928 23.3544 372.651 22.9235C372.374 22.5233 372.251 22.0001 372.343 21.7538C372.435 21.5076 372.281 21.1074 372.035 20.8304C371.727 20.5226 371.543 19.7839 371.543 18.7989C371.543 17.9678 371.389 17.1675 371.204 17.0444C371.019 16.9521 370.958 16.5827 371.019 16.2441C371.112 15.9055 371.081 15.3823 370.927 15.1053C370.804 14.8282 370.465 13.7817 370.158 12.7659C369.111 9.04152 366.895 4.209 365.417 2.45452C364.679 1.56189 364.278 1.37721 363.17 1.31565C362.432 1.25409 361.2 1.13097 360.431 1.03863C359.446 0.915505 358.953 0.977066 358.707 1.28487ZM355.845 22.7696C355.845 23.1081 355.722 23.3852 355.537 23.3852C355.383 23.3852 355.229 23.1081 355.229 22.7696C355.229 22.431 355.383 22.154 355.537 22.154C355.722 22.154 355.845 22.431 355.845 22.7696ZM372.004 55.0889C372.097 55.2429 372.035 55.3968 371.881 55.3968C371.697 55.3968 371.543 55.2429 371.543 55.0889C371.543 54.9043 371.604 54.7811 371.666 54.7811C371.758 54.7811 371.912 54.9043 372.004 55.0889ZM366.71 56.7819C366.464 57.459 366.033 57.3359 366.218 56.628C366.31 56.2894 366.495 56.1047 366.649 56.1663C366.772 56.2586 366.833 56.5356 366.71 56.7819Z" fill="#222222"/>
<path d="M472.81 4.33212C471.702 4.48602 469.486 4.57836 467.885 4.54758C461.852 4.45524 459.236 4.63992 459.051 5.19397C458.713 6.11738 457.635 7.07157 456.897 7.07157C456.496 7.07157 456.189 6.91767 456.189 6.76376C456.189 6.57908 455.912 6.45596 455.573 6.45596C455.173 6.45596 454.957 6.67142 454.957 7.07157C454.957 7.44093 454.588 7.87186 454.034 8.14888C452.957 8.70293 452.895 9.28775 453.757 10.9191C454.096 11.5963 454.557 12.6428 454.773 13.2276C454.957 13.8125 455.727 15.3207 456.466 16.5519C457.543 18.3987 457.882 18.7681 458.374 18.6142C458.836 18.4603 459.051 18.645 459.421 19.4761C460.005 20.8612 460.559 21.0459 462.899 20.5841C464.499 20.2456 465.269 20.2763 467.454 20.6457L470.071 21.0766L470.224 29.9722C470.317 34.8662 470.44 38.96 470.501 39.0831C470.563 39.2063 470.501 40.4375 470.348 41.8842C470.132 44.008 470.194 45.0238 470.686 47.5477C471.763 52.9651 472.318 53.6423 474.287 52.0725C476.257 50.5334 476.534 50.3795 477.55 50.4103C478.289 50.4411 478.751 50.2256 479.212 49.7024C479.582 49.2714 480.043 48.9329 480.259 48.9329C480.444 48.9329 480.874 48.7174 481.182 48.4096C481.983 47.7016 482.167 48.071 481.798 49.5485C481.552 50.5642 481.582 50.8412 481.89 50.9951C482.475 51.2106 482.968 50.8412 482.968 50.2564C482.968 49.9794 483.245 49.333 483.583 48.779C483.922 48.2557 484.383 46.9937 484.599 45.9779C484.845 44.993 485.645 42.9922 486.384 41.5456L487.708 38.9292L487.769 33.3888C487.862 27.4174 487.461 24.5856 486.261 22.4002C485.922 21.7538 485.676 21.169 485.769 21.1074C485.953 20.892 491.124 19.1375 493.125 18.5834C495.126 18.0294 495.187 17.9678 495.341 16.7674C495.434 15.9363 495.557 15.844 496.48 15.844C497.865 15.844 498.111 15.136 496.788 15.0129C495.403 14.8898 495.341 14.2742 496.634 13.5047C498.019 12.7044 498.081 12.1811 496.757 12.4274C495.249 12.7044 494.787 12.2119 495.988 11.6271C496.542 11.35 497.25 11.0422 497.557 10.9499C497.865 10.8268 498.05 10.6729 497.958 10.5497C497.834 10.4574 497.896 10.1188 498.081 9.81102C498.327 9.28775 498.265 9.22619 497.465 9.22619C495.434 9.22619 495.033 8.54902 496.665 7.87186C498.019 7.28703 498.696 6.02504 497.988 5.34787C497.28 4.63992 495.064 4.5168 493.125 5.07084C492.202 5.31709 490.416 5.74801 489.185 5.99425C487.061 6.42518 486.846 6.42518 485.584 5.84035C484.845 5.50177 483.737 5.22475 483.121 5.22475C482.506 5.22475 481.644 5.04006 481.182 4.79382C480.105 4.23977 475.426 3.99353 472.81 4.33212ZM481.428 46.7782C481.428 47.794 480.967 48.0402 480.751 47.1476C480.567 46.5012 480.782 45.8548 481.151 45.8548C481.305 45.8548 481.428 46.255 481.428 46.7782Z" fill="#222222"/>
<path d="M520.212 5.50177C518.765 5.80957 516.118 6.5483 514.302 7.16391C512.486 7.77952 510.577 8.30278 510.085 8.30278C509.593 8.30278 509.131 8.48747 509.008 8.76449C508.915 9.04151 508.454 9.2262 507.776 9.2262C507.192 9.2262 506.607 9.34932 506.514 9.534C506.422 9.6879 506.022 9.8418 505.653 9.8418C504.421 9.8418 502.667 10.4882 502.667 10.9191C502.667 11.1654 502.421 11.5347 502.144 11.7502C501.466 12.2427 501.251 15.3823 501.836 15.7516C502.113 15.9055 502.082 16.1826 501.682 16.8289C501.405 17.2907 501.189 18.1833 501.189 18.7681C501.189 19.3529 500.974 20.6765 500.759 21.6922C500.451 22.9235 500.297 25.9092 500.235 30.4646C500.205 34.2814 500.051 38.7138 499.897 40.3144C499.527 45.0238 500.081 48.0402 501.62 49.7024C502.205 50.2872 502.667 50.9028 502.667 51.0259C502.667 51.1798 503.221 51.4569 503.898 51.6723L505.129 52.0417L504.945 53.7038C504.822 54.5965 504.822 55.7045 504.945 56.1047C505.222 57.2128 507.499 58.4748 509.192 58.4748C510.331 58.4748 510.701 58.3209 511.593 57.3975C512.671 56.2894 514.086 55.7045 515.749 55.7045C516.272 55.7045 517.134 55.4275 517.688 55.0889C518.426 54.6272 519.227 54.4733 520.704 54.4733C523.844 54.4733 528.553 53.8885 529.846 53.3345C530.708 52.9651 530.985 52.6573 530.985 52.1032C530.985 51.6108 530.769 51.2722 530.369 51.1798C529.107 50.8412 529.631 50.4411 533.694 48.4712C535.51 47.5785 536.525 46.9014 536.525 46.5936C536.525 46.1626 536.279 46.1319 534.771 46.3165C533.817 46.4397 532.862 46.5936 532.616 46.6859C532.37 46.7782 532.216 46.6243 532.216 46.255C532.216 45.9472 532.062 45.5162 531.847 45.3008C531.57 45.0238 531.6 44.8391 532.093 44.4697C532.401 44.2235 532.924 44.008 533.201 44.008C533.971 44.008 534.679 43.6694 534.679 43.3308C534.679 43.1462 534.925 42.8384 535.202 42.6229C535.663 42.2843 535.663 42.1612 535.294 41.6995C534.956 41.2993 534.586 41.2378 533.632 41.3917C532.924 41.5148 530.954 41.6687 529.2 41.7303C526.399 41.8842 525.875 41.8226 524.798 41.2686C523.074 40.3759 518.919 40.3451 517.595 41.2378C516.58 41.9149 515.133 42.0381 514.794 41.5148C514.702 41.3301 514.887 40.8068 515.225 40.3144C515.595 39.8527 515.995 39.0216 516.118 38.4675C516.333 37.698 516.641 37.3902 517.534 37.0824C519.042 36.5592 520.058 35.6665 519.535 35.3587C519.35 35.2356 518.919 35.2664 518.642 35.4203C518.18 35.6665 517.749 35.6665 516.549 35.4203C516.487 35.3895 516.61 35.174 516.826 34.9278C517.041 34.6508 517.442 34.5277 517.688 34.62C517.903 34.7123 518.55 34.5584 519.073 34.3122C519.627 34.0659 520.673 33.8813 521.443 33.912C523.29 33.9428 525.444 33.5427 526.214 33.0194C526.737 32.6808 526.583 32.6501 524.89 32.804C523.536 32.9579 522.982 32.8963 522.982 32.6501C522.982 32.4654 523.259 32.3115 523.598 32.3115C524.459 32.3115 526.676 31.6035 526.676 31.3265C526.676 31.1726 526.491 31.0803 526.275 31.0803C526.06 31.0803 525.721 30.8032 525.506 30.4646C525.198 29.9414 525.198 29.849 525.66 29.849C526.275 29.8183 529.354 28.8025 529.631 28.5255C529.723 28.4331 529.2 28.2792 528.461 28.1561C527.137 27.9407 525.845 27.4174 526.614 27.3866C527.26 27.3866 527.014 26.8018 526.306 26.6479C525.906 26.5555 524.644 26.2785 523.444 25.9707C522.274 25.6937 520.058 25.3859 518.519 25.2628L515.749 25.0781L515.595 23.1081C515.502 21.9385 515.564 21.1074 515.749 21.0766C515.902 21.0151 517.688 20.4918 519.688 19.8454C522.859 18.8297 523.29 18.645 523.136 18.1217C522.89 17.3214 523.751 17.0136 524.367 17.66C524.706 17.9678 525.414 18.1525 526.368 18.1525C527.599 18.1525 527.876 18.0602 527.999 17.5061C528.276 16.5211 527.414 15.4746 526.183 15.2284C524.675 14.9513 525.013 14.3665 526.86 14.0279C528.245 13.7817 528.799 13.4431 528.83 12.8275C528.83 12.7044 528.584 12.612 528.307 12.612C527.845 12.612 527.814 12.5505 528.215 12.3042C528.461 12.1503 529.138 11.9964 529.692 11.9964C530.677 11.9964 530.985 11.5039 530.369 10.8883C530.154 10.6729 530.215 10.5805 530.585 10.5805C530.893 10.6113 531.2 10.4882 531.293 10.3035C531.385 10.1496 531.231 9.9957 530.985 9.96492C529.107 9.87258 527.907 9.01073 528.83 8.45669C529.354 8.1181 529.169 7.68718 528.492 7.68718C527.968 7.68718 527.907 7.59484 528.184 7.25625C528.43 6.97923 528.953 6.88689 529.969 7.01001C531.077 7.13313 531.354 7.07157 531.231 6.73299C531.17 6.48674 530.708 6.11738 530.277 5.90192C529.815 5.68645 529.446 5.37865 529.446 5.19397C529.446 4.73226 523.013 4.94772 520.212 5.50177ZM526.368 6.11738C526.368 6.30206 526.245 6.51752 526.06 6.60986C525.906 6.70221 525.752 6.57908 525.752 6.33284C525.752 6.05582 525.906 5.84036 526.06 5.84036C526.245 5.84036 526.368 5.96348 526.368 6.11738Z" fill="#222222"/>
<path d="M201.789 5.53256C199.511 5.90192 195.417 8.51826 192.278 11.5963C191.539 12.335 190.739 12.9198 190.493 12.9198C190.246 12.9198 189.661 13.32 189.169 13.8433C188.676 14.3357 188.092 14.7667 187.876 14.7667C187.661 14.7667 187.291 15.136 187.107 15.5977C186.891 16.0902 186.276 17.0136 185.752 17.6908C183.259 20.8612 181.505 23.6314 180.643 25.786C179.843 27.8175 179.719 28.4024 179.843 30.3108C179.996 32.6501 180.058 32.7424 183.167 37.0209C184.09 38.3137 185.075 39.4525 185.352 39.5449C185.629 39.6372 186.214 40.0374 186.645 40.4375C187.876 41.5764 192.493 43.7002 195.91 44.6852C197.603 45.1469 199.049 45.6394 199.142 45.7317C199.45 46.0395 198.649 46.9629 196.802 48.3173C194.956 49.7024 193.909 50.318 189.138 52.9343C186.399 54.4426 183.228 57.0897 182.213 58.721C181.843 59.2751 181.351 59.9215 181.105 60.1985C180.735 60.5679 180.704 60.7218 181.043 61.1219C181.351 61.4913 181.782 61.5528 183.074 61.3989C184.152 61.2758 184.706 61.3066 184.706 61.522C184.706 61.7067 184.49 61.8606 184.213 61.8606C183.475 61.8606 183.875 62.5686 184.798 62.8764C185.352 63.0611 185.906 62.9995 186.614 62.6609C187.168 62.4147 188.399 62.1069 189.323 62.0145C190.246 61.8914 191.231 61.6144 191.508 61.3681C192.062 60.8757 195.787 60.414 195.787 60.8449C195.787 60.9988 195.602 61.3066 195.417 61.522C194.494 62.4762 199.511 60.9064 203.082 59.1212C204.467 58.444 205.667 57.7361 205.79 57.5514C205.883 57.3667 207.083 56.5972 208.407 55.8585C209.73 55.089 210.9 54.2579 210.992 54.0116C211.085 53.7654 211.731 53.2113 212.47 52.7496C214.347 51.6108 215.64 50.3488 217.548 47.7632C218.441 46.5628 219.334 45.547 219.488 45.547C219.857 45.547 221.458 43.1154 221.888 41.8534C222.443 40.3144 222.35 37.698 221.673 36.3745C220.965 34.9278 219.211 32.096 218.41 31.0187C217.518 29.8798 214.532 28.0946 211.977 27.1712C210.284 26.5556 206.344 25.7553 204.036 25.5706C203.543 25.509 203.82 24.3086 204.405 24.0008C204.713 23.8469 206.067 23.6006 207.391 23.5083C210.007 23.2928 211.608 22.5849 212.008 21.446C212.439 20.1225 212.162 16.3365 211.485 14.9514C211.146 14.2434 210.869 13.2892 210.869 12.8275C210.869 12.3658 210.592 11.7502 210.254 11.4424C209.884 11.1654 209.392 10.1804 209.145 9.28777C208.745 7.93343 208.561 7.68719 207.945 7.68719C207.545 7.68719 206.745 7.22548 206.16 6.64065C204.99 5.50178 203.728 5.19398 201.789 5.53256Z" fill="#222222"/>
<path d="M52.535 6.30206C52.4427 6.5483 52.4427 7.16391 52.535 7.62561C52.6581 8.36434 52.535 8.51824 51.4577 9.04151C50.5958 9.44165 49.8879 9.56477 49.0876 9.44165C48.472 9.34931 47.5794 9.31853 47.1177 9.44165C46.3174 9.59556 46.2558 9.71868 46.2866 10.9499C46.2866 11.9349 46.4097 12.3042 46.7483 12.3042C47.0869 12.3042 47.1484 12.5505 46.9945 13.2584C46.9022 13.7817 46.8098 14.3973 46.8098 14.6128C46.8098 14.8282 46.502 15.1052 46.1327 15.1976C45.4555 15.3823 45.4555 15.413 45.9788 15.8132C46.9945 16.6135 46.4713 17.5369 44.9322 17.5369C44.2859 17.5369 44.1627 17.937 43.8857 21.169C43.6703 23.5698 43.9473 24.3086 44.9938 24.3086C45.4555 24.3086 45.5479 24.4625 45.4247 24.9857C45.3632 25.3859 45.1477 26.8633 44.963 28.31C44.7783 29.7567 44.5013 31.4188 44.3166 32.0344C43.8242 33.9428 43.1778 40.4375 43.4548 40.7761C43.5779 40.9607 43.5779 41.2993 43.424 41.5456C42.439 43.0846 43.9781 55.2121 45.1785 55.6122C45.3632 55.6738 45.6094 55.4583 45.7325 55.1197C46.0403 54.1655 46.2866 54.3194 47.0869 56.0123C47.9795 57.8592 48.0718 57.9515 49.7955 58.0131L51.1191 58.0439V56.3509C51.1191 55.3967 51.2422 54.4426 51.3961 54.2271C51.7963 53.5807 52.812 53.9193 52.9044 54.7196C53.0583 55.7969 53.9509 56.1047 55.4899 55.5506C56.2286 55.3044 57.1213 55.0889 57.4906 55.0889C58.1062 55.0889 58.1678 54.9043 58.2909 52.6881C58.5064 49.4254 58.9989 46.4704 59.399 46.0703C59.7992 45.6701 63.9853 45.7625 66.3554 46.1934C67.2172 46.3473 69.8028 46.5012 72.1421 46.5012C76.0204 46.5012 76.359 46.5628 76.359 47.0553C76.359 47.3631 76.5745 47.794 76.8207 48.0095C77.0669 48.2249 77.2824 48.5943 77.2824 48.8405C77.2824 49.5485 78.8214 52.3187 79.2831 52.5342C79.5294 52.6265 79.7448 52.8728 79.7448 53.0882C79.7448 53.5807 80.5759 54.4733 81.0068 54.4733C81.1607 54.4733 81.2839 54.2579 81.2839 54.0116C81.2839 53.4576 81.6532 53.4268 82.1149 53.8885C82.3612 54.1347 82.6074 54.0116 82.9768 53.4268C83.5924 52.5034 84.0233 52.4418 85.2853 53.0882C86.2395 53.5807 86.5165 53.3652 85.8394 52.6881C85.5315 52.3803 85.7778 52.3495 86.8243 52.5034C88.0555 52.6573 88.2402 52.5957 88.5172 51.9493C88.7019 51.58 89.256 51.0875 89.7485 50.9336C91.2259 50.4411 91.4414 50.1949 91.4414 49.056C91.4414 46.6859 86.0856 36.7746 83.0383 33.5119C81.4993 31.8498 77.7441 28.5255 75.8973 27.2327C75.0662 26.6171 75.0354 26.5555 75.4664 25.4474L75.8665 24.3086L73.8966 22.3694C71.9574 20.4918 67.3096 15.413 66.6632 14.4896C66.5093 14.2434 65.7706 13.4739 65.0318 12.7659C64.3239 12.0272 63.5851 11.0115 63.4005 10.4574C63.0311 9.47243 62.1385 8.91839 60.8149 8.91839C60.4148 8.91839 59.9223 8.61058 59.6145 8.14888C59.3375 7.71795 58.9065 7.37937 58.6603 7.37937C58.414 7.37937 58.0447 7.10235 57.8292 6.76376C57.2752 5.87113 56.3825 5.99425 56.0132 6.97922L55.7054 7.84107L54.782 6.82532C53.8278 5.77879 52.8428 5.53255 52.535 6.30206ZM46.3789 20.8304C46.0711 21.1382 45.7941 20.6765 46.0711 20.2763C46.2558 19.9378 46.3174 19.9378 46.4405 20.2763C46.502 20.4918 46.4713 20.738 46.3789 20.8304ZM62.0769 26.9557C62.5386 27.0788 63.185 28.033 64.17 29.9414C64.9395 31.5112 65.5859 32.9271 65.5859 33.1425C65.5859 33.635 63.6467 34.1583 61.7691 34.1583C60.5995 34.1583 60.3224 34.0659 60.4763 33.6966C60.5687 33.4503 60.3532 32.6501 60.0454 31.9421C59.3682 30.4339 59.2759 28.7102 59.7992 27.5405C60.1377 26.771 60.7841 26.6171 62.0769 26.9557Z" fill="#222222"/>
<path d="M391.55 6.05584C390.442 6.24052 387.148 7.3794 386.748 7.71798C386.563 7.87188 386.194 7.93344 385.948 7.8411C385.671 7.71798 385.271 7.96422 384.963 8.42593C384.686 8.85686 384.07 9.4109 383.578 9.65714C383.085 9.93417 382.624 10.3959 382.531 10.7652C382.377 11.3193 382.193 11.3808 381.177 11.1962C380.038 11.0115 379.976 11.073 379.299 12.2735C378.006 14.582 377.637 23.3852 378.499 32.1268C378.714 34.343 378.961 38.0674 379.084 40.3759C379.207 42.7153 379.392 44.6236 379.515 44.6236C379.607 44.6236 379.73 45.8856 379.73 47.4554C379.761 49.6101 379.915 50.3488 380.253 50.6258C380.684 50.9336 380.684 50.9952 380.223 51.303C379.453 51.7647 380.13 52.9651 381.792 54.0732C383.024 54.9351 383.208 54.9658 383.947 54.5657C384.717 54.1656 384.778 54.1963 385.209 55.0582C385.517 55.5814 386.009 55.9816 386.533 56.1047C387.333 56.2586 388.072 56.8434 389.488 58.4748C390.103 59.1828 392.227 59.3367 393.52 58.7518C394.105 58.4748 395.059 58.4748 397.213 58.721C400.199 59.0596 400.507 59.0288 403.4 57.9515C404.755 57.4283 404.939 57.2744 404.847 56.5664C404.785 55.9816 404.939 55.643 405.463 55.366C406.14 54.9966 406.14 54.9966 405.555 54.7504C405.001 54.5349 405.032 54.5041 405.74 54.5041C406.694 54.4734 407.402 53.7654 407.125 53.0882C407.002 52.7189 407.125 52.6265 407.648 52.6881C408.294 52.7804 408.325 52.6881 408.233 51.0875C408.171 50.1641 408.11 48.6866 408.11 47.794C408.048 46.0703 408.14 46.1319 405.401 45.2392C404.816 45.0546 402.138 44.8083 399.46 44.716C395.151 44.5621 394.536 44.4697 394.228 43.9465C394.012 43.6079 393.52 43.3924 392.997 43.3924C392.289 43.3924 392.135 43.2693 392.289 42.8999C392.381 42.6229 392.473 42.0996 392.473 41.6995C392.473 41.0223 392.596 40.9916 394.628 40.9608C396.906 40.93 399.029 40.2528 399.83 39.2986C400.045 38.9908 400.415 38.7754 400.63 38.7754C400.846 38.7754 401.338 38.5291 401.738 38.1905L402.446 37.6365L401.769 37.421C401.4 37.2979 400.815 37.3595 400.476 37.5442C399.737 37.9443 396.783 37.6673 396.783 37.2056C396.783 36.5592 398.075 35.6973 399.06 35.6973C399.768 35.6973 400.261 35.4819 400.538 35.1125C400.753 34.8047 401.523 34.343 402.261 34.1583C403.092 33.8813 403.554 33.5735 403.554 33.2349C403.554 32.8348 403.339 32.7424 402.569 32.8655L401.553 32.9887L402.415 32.096C403.37 31.0495 403.462 30.5878 402.754 29.8183C402.261 29.295 402.292 29.2335 403.092 28.9257C403.554 28.741 403.893 28.5563 403.831 28.4947C403.77 28.4332 401.923 28.1869 399.707 28.0022C397.521 27.7868 395.367 27.5713 394.936 27.5098C394.505 27.479 394.074 27.4174 393.951 27.4174C393.458 27.3559 393.735 26.3709 394.566 25.3244C395.028 24.7087 395.367 24.1547 395.336 24.0931C394.843 23.4775 397.49 21.8462 398.968 21.8462C399.522 21.8462 400.815 21.6923 401.83 21.5076C402.877 21.3229 403.985 21.1074 404.354 21.0459C404.693 20.9843 405.463 20.615 406.047 20.2148C406.94 19.5992 407.094 19.353 407.002 18.4295C406.94 17.8447 406.694 17.1676 406.478 16.9213C406.109 16.5212 406.047 15.6593 406.294 14.4281C406.294 14.3358 406.663 13.8741 407.094 13.4123C407.956 12.4889 408.079 11.3501 407.402 10.7652C407.155 10.5498 406.94 10.2112 406.94 9.96495C406.94 9.74949 406.663 9.4109 406.324 9.22622C405.555 8.79529 405.555 8.45671 406.355 7.65642C407.494 6.51755 406.94 6.2713 403.185 6.05584C399.491 5.84038 392.843 5.84038 391.55 6.05584ZM386.225 9.1031C385.948 9.38012 385.363 8.91842 385.578 8.54905C385.702 8.36437 385.886 8.36437 386.102 8.57983C386.286 8.76451 386.348 8.97998 386.225 9.1031ZM385.702 44.2851C385.702 44.439 385.486 44.6544 385.209 44.7468C384.532 45.0238 384.47 44.993 384.47 44.4697C384.47 44.2235 384.747 44.008 385.086 44.008C385.425 44.008 385.702 44.1312 385.702 44.2851ZM385.086 51.0875C385.086 51.4261 384.871 51.7031 384.624 51.7031C384.378 51.7031 384.163 51.4261 384.163 51.0875C384.163 50.7489 384.378 50.4719 384.624 50.4719C384.871 50.4719 385.086 50.7489 385.086 51.0875ZM386.779 53.2114C386.779 53.4576 386.656 53.7038 386.471 53.7654C385.979 53.9193 385.301 53.3345 385.548 52.9651C385.825 52.4726 386.779 52.6881 386.779 53.2114Z" fill="#222222"/>
<path d="M165.006 7.90264C163.898 8.14888 162.513 8.64137 161.898 8.94917C161.282 9.25697 160.451 9.534 160.051 9.534C157.896 9.56478 157.065 9.74946 156.265 10.2419C155.772 10.5805 155.126 10.7344 154.756 10.6421C154.387 10.5497 153.956 10.6113 153.802 10.7344C153.618 10.8883 153.064 11.073 152.54 11.1654C151.309 11.3808 149.493 12.0888 148.908 12.5813C148.631 12.7967 148.385 13.4123 148.323 13.9356C148.262 14.7359 148.077 14.9206 147.308 15.0745C146.784 15.1976 145.984 15.5362 145.492 15.844C144.753 16.3365 144.661 16.5519 144.845 17.4138C144.938 17.9678 144.876 18.4911 144.691 18.6142C144.537 18.7065 144.383 19.0143 144.383 19.2914C144.383 19.5684 144.106 20.3995 143.737 21.1074C142.814 23.0466 141.921 28.9872 142.106 32.1576C142.598 40.9608 145.307 52.0109 146.969 52.0109C147.246 52.0109 147.462 52.2879 147.462 52.6265C147.462 52.9959 147.646 53.673 147.892 54.1347C148.262 54.8427 148.508 54.9658 149.278 54.8427C149.801 54.7811 150.847 54.8119 151.617 54.9043C152.725 55.0889 153.002 55.2428 153.002 55.7353C153.002 56.0431 153.094 56.3202 153.187 56.3202C154.326 56.3202 159.928 57.4282 161.005 57.8592C162.605 58.5363 166.484 59.5213 169.162 59.9522C172.086 60.4139 175.379 59.8291 176.549 58.6595C177.626 57.6129 177.996 56.628 177.78 55.3967C177.657 54.7196 177.442 54.104 177.288 53.9808C176.764 53.673 177.011 52.6265 177.78 52.134C178.796 51.4569 178.765 51.0567 177.472 49.056C176.888 48.1326 176.395 47.1168 176.395 46.809C176.395 46.5012 176.21 46.1626 175.964 46.0703C175.718 45.978 175.595 45.6394 175.656 45.3316C175.749 44.9314 175.472 44.6236 174.641 44.2543C170.331 42.3151 168.854 42.0381 165.006 42.469C163.406 42.6537 161.744 42.9307 161.313 43.0846C160.882 43.2385 159.897 43.4232 159.066 43.5463C157.865 43.7002 157.588 43.6386 157.404 43.2077C157.28 42.8999 157.342 42.6229 157.527 42.5613C158.389 42.2535 158.85 41.5764 159.004 40.3144C159.22 38.5291 160.205 37.4518 161.467 37.6365C162.513 37.7904 165.837 37.0824 166.484 36.5592C166.699 36.3437 166.822 35.9128 166.73 35.5126C166.607 35.0201 166.761 34.7123 167.284 34.343C167.715 34.0967 168.115 33.5735 168.238 33.2349C168.361 32.8963 168.7 32.6193 169.069 32.6193C169.593 32.6193 169.623 32.6808 169.316 33.081C168.854 33.635 169.1 34.0044 169.777 33.7274C170.978 33.2657 170.547 31.9113 169.008 31.3265C168.331 31.0803 168.3 30.9879 168.731 30.6801C169.5 30.0953 169.716 28.7102 169.1 28.3716C168.331 27.9714 163.467 27.1404 160.666 26.8941C158.327 26.7402 158.296 26.7094 158.112 25.7552C158.019 25.232 158.019 24.7087 158.142 24.6164C158.358 24.4317 161.343 23.7237 163.775 23.262C164.883 23.0466 160.143 23.3544 158.85 23.5698C157.896 23.7237 157.711 23.6622 157.311 22.9235C157.003 22.3386 156.973 22.0616 157.219 21.9077C157.404 21.7846 160.235 21.8154 163.498 21.9385C173.656 22.3386 174.302 22.3078 175.749 20.9535C176.734 20.0301 177.011 18.6758 176.426 17.5677C176.21 17.1983 176.303 16.7982 176.703 16.1518C177.011 15.6901 177.195 15.1052 177.103 14.8898C177.041 14.6743 177.257 14.305 177.596 14.0895C178.519 13.5047 178.396 13.2892 177.103 13.1661C176.272 13.1045 175.903 12.9198 175.841 12.5197C175.749 12.1195 175.933 11.9964 176.641 11.9964C177.349 11.9964 177.626 11.8117 177.934 11.073C178.273 10.2112 178.242 10.1188 177.318 9.31853C175.072 7.41015 174.979 7.37937 170.855 7.41015C168.577 7.41015 166.176 7.62561 165.006 7.90264Z" fill="#222222"/>
<path d="M406.478 7.96422C406.386 8.1489 406.601 8.42592 406.94 8.61061C407.463 8.88763 407.556 8.85685 407.556 8.3028C407.556 7.6872 406.817 7.44095 406.478 7.96422Z" fill="#222222"/>
<path d="M551.7 8.54904C550.561 8.67216 549.853 9.34933 550.284 9.90338C550.438 10.1188 550.561 10.6421 550.561 11.073C550.531 11.7194 550.407 11.8425 549.607 11.781C549.115 11.7502 548.53 11.504 548.376 11.2577C547.791 10.4882 545.698 9.47245 544.99 9.65713C544.436 9.81103 544.251 10.1496 544.067 11.2577C543.974 12.0272 543.82 12.8891 543.79 13.1661C542.897 18.2141 542.651 20.5534 543.02 20.7996C543.174 20.8612 543.266 21.6615 543.236 22.5541C543.205 23.4467 543.389 25.2628 543.697 26.6171C543.974 27.9714 544.251 29.6336 544.313 30.3108C544.374 30.9879 544.528 31.7574 544.621 32.0037C544.836 32.5885 545.206 35.2356 545.267 36.4361C545.267 36.9285 545.483 37.3902 545.667 37.4518C545.975 37.5749 545.944 37.8519 545.606 38.683C545.359 39.2986 545.052 40.7453 544.929 41.915L544.744 44.0696L546.406 43.9772C547.822 43.8541 548.068 43.9465 548.16 44.4389C548.222 44.7467 548.099 45.1469 547.853 45.27C547.545 45.4855 547.545 45.6086 547.822 45.7933C548.037 45.9164 548.222 46.6551 548.284 47.3939C548.376 48.6251 548.314 48.779 547.514 49.056C546.591 49.3946 545.636 49.056 545.575 48.3481C545.483 47.7017 545.452 47.6709 544.805 48.0402C544.282 48.3173 544.19 48.5635 544.344 49.333C544.436 49.8563 544.59 50.318 544.651 50.3796C544.713 50.4411 545.483 50.2872 546.344 49.9794C548.899 49.1483 548.868 49.7639 546.314 51.2106C545.144 51.857 545.606 52.2264 546.96 51.7647C547.73 51.4876 547.945 51.5492 548.437 52.0725C548.838 52.5342 549.238 52.6573 550.007 52.5034C550.561 52.4111 551.362 52.5034 551.793 52.6881C552.408 52.9651 552.531 53.2421 552.531 54.381C552.531 55.643 552.562 55.7046 553.455 55.7046C553.978 55.7046 554.378 55.5507 554.378 55.3968C554.378 55.2121 554.563 55.089 554.778 55.1505C555.394 55.2736 558.041 53.5499 557.887 53.119C557.795 52.9035 558.226 52.3803 558.81 51.9801C559.919 51.2414 560.534 50.2564 560.534 49.2407C560.534 48.9329 560.657 48.5943 560.78 48.502C560.934 48.4096 561.242 47.5785 561.458 46.6551C561.888 44.7775 561.673 40.8069 561.119 40.0989C560.934 39.8835 560.842 39.4217 560.934 39.0524C561.119 38.3137 560.38 36.159 559.642 35.2664C559.272 34.8355 559.241 34.6508 559.549 34.5584C560.349 34.2506 559.611 31.2034 558.626 30.8956C558.318 30.8032 558.072 30.6186 558.072 30.4647C558.072 30.3108 558.287 30.2492 558.533 30.3415C559.149 30.5878 559.734 29.1103 559.303 28.3408C559.149 28.033 558.872 26.8326 558.687 25.6629C558.441 24.0316 558.195 23.3852 557.61 22.9235C556.964 22.4002 556.841 21.9077 556.563 19.2914C556.41 17.5985 556.009 15.7516 555.671 14.9821C555.332 14.2742 554.901 13.32 554.717 12.8275C554.532 12.3658 554.193 11.9964 553.947 11.9964C553.362 11.9964 553.055 11.1038 553.485 10.5805C553.886 10.0881 553.609 8.73372 553.085 8.54904C552.87 8.48748 552.254 8.48748 551.7 8.54904Z" fill="#222222"/>
<path d="M25.325 11.2885C24.3093 13.5663 23.8783 16.5519 24.2785 18.2141C24.5863 19.4453 24.5247 26.7402 24.1862 28.4332C24.1246 28.741 24.2785 30.1261 24.5247 31.5112C24.771 32.8655 24.9557 34.0352 24.9557 34.066C24.9557 34.1275 24.771 34.1583 24.5863 34.1583C23.9091 34.1275 22.7703 32.9271 19.8769 29.2335C18.3687 27.2943 16.8604 25.4475 16.5834 25.1705C16.2756 24.8626 16.0294 24.5241 16.0294 24.4317C16.0294 24.3086 14.952 23.1389 13.5977 21.7846C11.2584 19.4145 11.1353 19.353 10.058 19.5376C8.64207 19.8147 8.58051 19.1991 9.90406 17.9063C10.9506 16.8905 10.9198 15.9363 9.8425 15.3823C9.5347 15.1976 9.25767 14.7667 9.25767 14.4589C9.25767 13.9972 9.04221 13.8433 8.48816 13.8433C7.31851 13.8433 6.3951 14.3973 5.56403 15.567C4.88686 16.5827 4.79452 16.6443 4.42516 16.121C4.20969 15.8132 4.02501 15.3823 4.02501 15.1361C4.02501 14.859 3.80955 14.7975 3.34784 14.9206C2.7938 15.0745 2.76302 15.0437 3.1016 14.7975C3.71721 14.3665 3.19394 13.9356 2.54755 14.3665C2.20897 14.5512 2.05507 15.0129 2.08585 15.567C2.14741 16.3673 2.11663 20.3687 2.05507 22.5233C2.02429 22.985 1.77805 23.5391 1.47024 23.7546C0.823855 24.247 0.39293 26.0631 0.485271 27.8483C0.700733 31.6343 0.639173 34.6508 0.331369 37.2364C-0.00721506 39.8219 -0.0995562 45.701 0.115906 47.6093C0.177467 47.9787 0.485271 48.5943 0.793074 48.9329C1.224 49.4254 1.28556 49.6408 1.00854 49.9179C0.485271 50.4411 0.546831 51.2414 1.10088 51.7031C1.43946 51.9801 1.50102 52.1956 1.25478 52.4419C0.762294 52.9343 0.854635 53.9501 1.40868 53.7346C1.99351 53.5192 1.99351 53.8578 1.40868 54.6888C0.946976 55.3352 0.916196 55.6738 0.946976 58.7518C0.946976 59.6752 0.885415 60.4755 0.793074 60.5679C0.42371 60.9372 1.40868 61.5528 2.33209 61.5528C3.34784 61.5528 5.81027 60.3524 6.48744 59.5521C6.7029 59.3059 7.16461 59.0904 7.53397 59.0904C9.04221 59.0596 9.5347 57.7669 9.5347 53.7962C9.5347 51.4569 9.62704 50.6258 10.0887 49.9794C10.3658 49.5177 10.6428 48.8406 10.6428 48.502C10.6428 48.1326 10.7967 47.4247 10.9814 46.9322C11.1968 46.4089 11.5046 45.4239 11.6893 44.6852C11.9048 43.9773 12.1818 43.3924 12.3357 43.3924C12.6743 43.3924 16.1833 46.9937 16.8912 48.1018C17.1682 48.4712 17.9993 49.4869 18.7688 50.3796C19.5383 51.2414 20.4925 52.3803 20.8927 52.9036C21.2928 53.4268 21.7853 53.8578 22.0315 53.8578C22.247 53.8578 22.4932 54.1348 22.5856 54.4734C22.6779 54.8427 23.0165 55.089 23.3551 55.089C24.1246 55.089 24.494 54.1963 23.8783 53.9501C23.1396 53.6731 23.9399 52.9343 24.9557 52.9343C25.8175 52.9343 26.8025 53.7346 26.8025 54.5041C26.8333 54.7504 27.1103 54.5657 27.5412 54.0424C28.1568 53.3037 28.3723 53.2421 28.8955 53.5192C29.2957 53.7346 30.1268 53.7654 31.1733 53.6115C32.4661 53.4268 32.8047 53.2729 32.897 52.7804C32.9278 52.4419 33.1125 51.6723 33.2971 51.0567C33.5742 50.2257 33.5434 49.6408 33.2664 48.8098C32.8354 47.4862 32.897 47.3631 33.7896 47.5786C34.3437 47.7325 34.436 47.9171 34.3129 48.5943C34.2205 49.0252 34.3129 49.7947 34.4976 50.318C34.8669 51.2414 34.8669 51.2414 35.2979 49.2407C35.5441 48.1326 35.698 47.0245 35.6057 46.7475C35.5441 46.4705 35.6057 45.4855 35.7596 44.5929C36.1905 41.8842 36.1905 39.6372 35.6057 26.0015C35.5441 25.1397 35.421 24.247 35.2979 23.97C35.144 23.6314 35.421 23.2313 36.1905 22.6157C37.237 21.8462 37.2986 21.6923 37.1755 20.4303C37.1139 19.5684 37.2062 18.8605 37.4833 18.4603C37.8219 17.9678 37.8834 17.383 37.7295 16.2134C37.4833 14.4897 36.7138 13.4739 35.421 13.1045C33.451 12.5505 32.62 11.5963 33.7281 11.1962C34.3437 10.9499 34.3129 10.2728 33.6665 10.0265C33.3279 9.90339 32.9893 9.99573 32.7739 10.2728C32.3429 10.8884 31.6042 10.9191 31.8505 10.3035C32.0967 9.59559 31.0194 9.71871 30.5577 10.4574C30.3422 10.796 29.9729 11.073 29.7266 11.073C29.4804 11.073 29.2649 10.796 29.2649 10.4574C29.2649 9.71871 29.0802 9.68793 28.4338 10.3035C28.0029 10.7345 27.9106 10.7345 27.4489 10.3035C26.5562 9.53403 26.0022 9.78027 25.325 11.2885ZM26.9256 11.1962C26.8333 11.4424 26.5562 11.5655 26.31 11.4732C25.6636 11.2269 25.7867 10.7652 26.4947 10.7652C26.8948 10.7652 27.0487 10.9191 26.9256 11.1962Z" fill="#222222"/>
<path d="M111.295 10.9191C108.001 11.9349 101.26 15.6285 98.2746 18.0602C97.3204 18.8297 97.5667 19.3222 98.6748 18.8297C99.5674 18.3987 99.9367 18.7989 99.4443 19.7223C99.0441 20.4303 97.382 21.2305 96.2431 21.2305C95.2274 21.2305 94.15 23.2928 94.1808 25.2012C94.2116 27.8175 94.3963 30.6186 94.581 31.0803C95.0427 32.1884 95.2274 33.5427 95.2274 35.605C95.1966 37.6057 95.2889 37.8519 95.8122 37.8519C96.6432 37.8519 96.8587 38.683 96.1815 39.4217C95.6891 39.9758 95.6891 40.0681 96.12 40.5298C96.5201 40.8992 96.5509 41.1454 96.2739 41.5764C96.0276 41.9765 96.0276 42.5921 96.3047 43.9465C96.5201 44.9314 96.674 46.0087 96.674 46.3473C96.674 47.7632 97.3204 49.2407 97.9052 49.2407C98.4901 49.2407 98.4901 49.2715 97.9668 49.7947C97.1357 50.6258 97.382 52.8112 98.4901 54.4733C98.7979 54.9043 99.198 55.8277 99.4135 56.5664C99.906 58.2901 100.491 58.4748 101.722 57.2744C102.245 56.7511 102.799 56.3202 102.892 56.3202C103.015 56.3202 103.476 56.6587 103.938 57.0897C104.461 57.5822 104.985 57.7976 105.262 57.6745C105.539 57.5514 106.062 57.3975 106.462 57.3359C106.832 57.2436 107.139 56.9973 107.139 56.8126C107.139 56.5972 107.324 56.197 107.539 55.8892C107.878 55.4275 108.094 55.366 108.555 55.643C108.925 55.8585 109.325 55.8585 109.694 55.643C110.094 55.4583 110.402 55.4583 110.71 55.7046C111.449 56.3509 111.479 55.4891 110.864 50.7797C110.371 46.8706 110.341 46.255 110.741 45.8241C110.987 45.5163 111.264 44.5313 111.356 43.5771C111.449 42.6229 111.664 41.761 111.818 41.6687C112.003 41.5456 112.649 42.0073 113.295 42.6229C114.157 43.454 114.65 43.731 115.142 43.6079C115.573 43.4847 116.096 43.7618 116.897 44.5005C117.512 45.0853 118.128 45.547 118.313 45.547C118.467 45.547 119.082 46.0703 119.667 46.6859C120.344 47.4554 120.775 47.7324 120.867 47.4554C121.175 46.7475 121.883 47.086 122.591 48.3173C122.991 48.9944 123.638 49.6716 124.069 49.8255C124.499 49.9794 125.669 50.9028 126.685 51.857C128.716 53.7346 131.117 55.4891 132.472 55.9816C132.964 56.1663 133.98 56.3202 134.78 56.3202C138.443 56.3202 141.767 51.857 141.029 47.9479C140.752 46.3781 138.658 42.6845 137.396 41.484C136.473 40.6222 123.237 33.8505 122.468 33.8505C122.191 33.8505 121.822 33.6658 121.637 33.4503C121.452 33.2041 120.744 32.8347 120.067 32.6193C118.436 32.0652 118.128 31.6651 118.713 30.834C119.082 30.3108 119.359 30.1876 120.006 30.3723C120.467 30.4647 120.991 30.7725 121.175 31.0187C121.483 31.4496 121.729 31.4188 123.176 30.834C124.099 30.4647 125.331 30.0645 125.915 29.9414C127.639 29.6336 129.27 28.4024 129.948 26.9865C130.963 24.7087 130.532 19.0759 129.332 19.0759C129.147 19.0759 128.993 18.8297 128.993 18.5219C128.993 17.7831 127.393 15.5054 126.008 14.305C124.777 13.1969 121.575 11.5347 118.682 10.4882C117.266 9.96493 113.665 10.1804 111.295 10.9191ZM114.219 21.5383C114.557 21.723 115.296 22.3694 115.912 22.985C116.743 23.8469 116.989 24.3394 116.989 25.232C116.989 26.217 116.774 26.5863 115.604 27.6636C114.865 28.3408 114.065 28.9564 113.849 28.9872C113.634 29.018 112.957 29.0795 112.372 29.1103C111.787 29.1719 110.833 29.295 110.279 29.4181C109.048 29.6644 107.94 28.8641 108.247 27.9407C108.34 27.6329 108.278 27.2019 108.124 26.9865C107.97 26.771 107.724 26.0631 107.601 25.3859C107.509 24.7087 107.17 23.9084 106.924 23.6314C106.647 23.3236 106.524 22.8927 106.616 22.6464C107.016 21.5999 112.772 20.7688 114.219 21.5383ZM100.675 53.396C100.675 53.8577 99.2596 54.381 98.921 54.0424C98.6132 53.7654 99.475 52.9343 100.091 52.9343C100.429 52.9343 100.675 53.1498 100.675 53.396Z" fill="#222222"/>
<path d="M222.258 19.8454C221.673 20.5534 222.288 21.0767 223.181 20.615C223.704 20.3379 223.766 20.184 223.458 19.8147C222.996 19.2606 222.75 19.2606 222.258 19.8454Z" fill="#222222"/>
<path d="M161.282 39.7295C161.005 39.8834 161.59 40.0066 162.821 40.0066C163.898 40.0066 164.729 39.945 164.668 39.8834C164.391 39.6064 161.682 39.4833 161.282 39.7295Z" fill="#222222"/>
<path d="M545.144 45.2392C545.144 46.3781 545.667 46.4397 546.067 45.3623C546.467 44.3158 546.467 44.3158 545.759 44.3158C545.267 44.3158 545.144 44.5313 545.144 45.2392Z" fill="#222222"/>
<path d="M265.227 54.5657C264.796 54.8735 264.735 55.0582 265.012 55.2429C265.473 55.5199 266.089 54.9966 265.935 54.5041C265.843 54.2579 265.627 54.2887 265.227 54.5657Z" fill="#222222"/>
<path d="M81.4377 55.0889C81.53 55.2428 81.6839 55.3967 81.7763 55.3967C81.8378 55.3967 81.8994 55.2428 81.8994 55.0889C81.8994 54.9043 81.7455 54.7811 81.5608 54.7811C81.4069 54.7811 81.3453 54.9043 81.4377 55.0889Z" fill="#222222"/>
</svg>
